<svg width="40" height="41" viewBox="0 0 40 41" fill="none" xmlns="http://www.w3.org/2000/svg">
<path d="M0.51756 0.576786C0.221811 0.789833 0 1.92609 0 3.06234V5.05078H20.037H40L39.7782 2.70726L39.5564 0.434754L20.2588 0.221707C9.68577 0.150691 0.813309 0.292722 0.51756 0.576786Z" fill="url(#paint0_linear_2383_4)"/>
<path d="M0.147874 19.7506L0.369686 31.6812L6.28466 31.8943L12.1996 32.0363L16.0444 36.1552L19.963 40.2031L23.8817 36.1552L27.7264 32.0363L33.6414 31.8943L39.5564 31.6812L39.7782 19.7506L39.9261 7.89093H19.963H0L0.147874 19.7506ZM19.963 12.862C20.5545 12.862 22.2551 12.72 23.6599 12.4359C25.7301 12.1519 26.5434 12.3649 27.7264 13.5722C30.6839 16.7679 28.5397 22.5202 22.7726 26.4261L20.4806 28.0594L17.8189 26.5681C11.756 23.1593 9.02033 16.9099 12.1996 13.5722C13.3826 12.3649 14.1959 12.1519 16.2662 12.4359C17.671 12.72 19.3715 12.862 19.963 12.862Z" fill="url(#paint1_linear_2383_4)"/>
<defs>
<linearGradient id="paint0_linear_2383_4" x1="41.4048" y1="3.61272" x2="0.0253392" y2="-0.0799964" gradientUnits="userSpaceOnUse">
<stop stop-color="#F77289"/>
<stop offset="1" stop-color="#F9C7D0"/>
</linearGradient>
<linearGradient id="paint1_linear_2383_4" x1="40.2218" y1="39.9723" x2="1.4" y2="4.90306" gradientUnits="userSpaceOnUse">
<stop stop-color="#F77289"/>
<stop offset="1" stop-color="#F9C7D0"/>
</linearGradient>
</defs>
</svg>
