<svg width="40" height="40" viewBox="0 0 40 40" fill="none" xmlns="http://www.w3.org/2000/svg">
<path d="M9.39326 21.1783L12.4399 24.2267L14.7999 21.8667L11.7499 18.8217L14.1066 16.465L17.1549 19.5117L19.5116 17.155L16.4666 14.1067L18.8233 11.75L21.8666 14.8L24.2249 12.4417L21.1766 9.39501L25.8916 4.68168C26.2041 4.36923 26.628 4.1937 27.0699 4.1937C27.5119 4.1937 27.9357 4.36923 28.2483 4.68168L35.3183 11.7517C35.6307 12.0642 35.8062 12.4881 35.8062 12.93C35.8062 13.372 35.6307 13.7958 35.3183 14.1083L14.1066 35.32C13.7941 35.6325 13.3702 35.808 12.9283 35.808C12.4863 35.808 12.0625 35.6325 11.7499 35.32L4.67993 28.25C4.36748 27.9375 4.19195 27.5136 4.19195 27.0717C4.19195 26.6297 4.36748 26.2059 4.67993 25.8933L9.39326 21.1783ZM23.5349 30.605L30.6066 23.535L34.9999 27.9283V35H27.9299L23.5349 30.605ZM9.39326 16.4633L4.67826 11.75C4.5233 11.5952 4.40037 11.4114 4.3165 11.2091C4.23262 11.0067 4.18945 10.7899 4.18945 10.5708C4.18945 10.3518 4.23262 10.1349 4.3165 9.93261C4.40037 9.73028 4.5233 9.54647 4.67826 9.39168L9.39326 4.67835C9.70581 4.36589 10.1297 4.19037 10.5716 4.19037C11.0135 4.19037 11.4374 4.36589 11.7499 4.67835L16.4666 9.39168L9.39326 16.4633Z" fill="url(#paint0_linear_499:144)"/>
<defs>
<linearGradient id="paint0_linear_499:144" x1="3.99994" y1="0.5" x2="40.9999" y2="36" gradientUnits="userSpaceOnUse">
<stop stop-color="#EB4D75"/>
<stop offset="1" stop-color="#FFA99C"/>
</linearGradient>
</defs>
</svg>
