<svg width="34" height="34" viewBox="0 0 34 34" fill="none" xmlns="http://www.w3.org/2000/svg">
<path d="M31.9997 30H18.6663V5C18.6663 3.67392 19.1931 2.40215 20.1308 1.46447C21.0685 0.526784 22.3403 0 23.6663 0H31.9997C32.4417 0 32.8656 0.175595 33.1782 0.488155C33.4907 0.800716 33.6663 1.22464 33.6663 1.66667V28.3333C33.6663 28.7754 33.4907 29.1993 33.1782 29.5118C32.8656 29.8244 32.4417 30 31.9997 30ZM15.333 30H1.99967C1.55765 30 1.13372 29.8244 0.821163 29.5118C0.508602 29.1993 0.333008 28.7754 0.333008 28.3333V1.66667C0.333008 1.22464 0.508602 0.800716 0.821163 0.488155C1.13372 0.175595 1.55765 0 1.99967 0H10.333C11.6591 0 12.9309 0.526784 13.8685 1.46447C14.8062 2.40215 15.333 3.67392 15.333 5V30ZM15.333 30H18.6663V33.3333H15.333V30Z" fill="url(#paint0_linear_502:193)"/>
<defs>
<linearGradient id="paint0_linear_502:193" x1="-0.500306" y1="-0.999999" x2="35.4997" y2="31" gradientUnits="userSpaceOnUse">
<stop stop-color="#EB4D75"/>
<stop offset="1" stop-color="#FFA99C"/>
</linearGradient>
</defs>
</svg>
