<svg width="38" height="34" viewBox="0 0 38 34" fill="none" xmlns="http://www.w3.org/2000/svg">
<path d="M34.0003 30.3333H37.3337V33.6666H0.666992V30.3333H4.00033V1.99998C4.00033 1.55795 4.17592 1.13403 4.48848 0.821468C4.80104 0.508908 5.22496 0.333313 5.66699 0.333313H32.3337C32.7757 0.333313 33.1996 0.508908 33.5122 0.821468C33.8247 1.13403 34.0003 1.55795 34.0003 1.99998V30.3333ZM17.3337 10.3333H14.0003V13.6666H17.3337V17H20.667V13.6666H24.0003V10.3333H20.667V6.99998H17.3337V10.3333ZM22.3337 30.3333H25.667V20.3333H12.3337V30.3333H15.667V23.6666H22.3337V30.3333Z" fill="url(#paint0_linear_502:184)"/>
<defs>
<linearGradient id="paint0_linear_502:184" x1="0.600317" y1="0.199914" x2="40.2003" y2="33.7999" gradientUnits="userSpaceOnUse">
<stop stop-color="#FFAA00"/>
<stop offset="1" stop-color="#FF8D54"/>
</linearGradient>
</defs>
</svg>
