<svg width="70" height="70" viewBox="0 0 70 70" fill="none" xmlns="http://www.w3.org/2000/svg">
<path d="M41.8141 4.21097C41.6664 4.23284 41.5188 4.27659 41.3766 4.34222C40.1735 4.93831 38.8063 6.71018 38.5438 7.06018C38.5274 7.08206 38.511 7.10393 38.5 7.12581C37.1492 9.14925 36.4274 11.5172 36.4 13.9836C36.3836 15.8321 36.7445 17.6641 37.4774 19.4305C39.1836 23.5266 42.7274 26.9172 46.9438 28.5032C47.086 28.5524 47.2227 28.6016 47.4688 28.6891C47.4906 28.7 47.6985 28.7657 47.7313 28.7711L47.8844 28.8258C48.1031 28.8969 48.3274 28.968 48.5461 29.0117C49.6563 29.236 50.7391 29.3617 51.7563 29.3946C51.9313 29.3946 52.1063 29.4 52.2813 29.4C59.9539 29.4 62.9289 23.986 63.9188 22.1813C64.0172 22.0063 64.0883 21.8641 64.1539 21.7766C64.1539 21.7711 64.1539 21.7711 64.1594 21.7657C64.5914 21.1258 64.4274 20.2563 63.7875 19.8188C63.1531 19.3867 62.2836 19.5508 61.8461 20.1907H61.8406C59.7953 23.2039 56.2953 24.1172 51.4445 22.9141C51.0836 22.8266 50.6899 22.6899 50.3399 22.5586C49.8805 22.3946 49.4211 22.2032 48.9945 21.9953C48.1469 21.5742 47.3485 21.0711 46.6266 20.5133C42.361 17.2047 40.693 10.3196 43.1867 6.34378C43.5203 5.81331 43.4602 5.12425 43.0391 4.6594C42.7219 4.3094 42.2625 4.15081 41.8141 4.21097ZM29.411 7.00003C29.0938 6.99456 28.7711 7.09847 28.5086 7.31722C26.3922 9.03987 24.2266 11.8617 24.1336 11.9766C24.1227 11.9985 24.1117 12.0149 24.0953 12.0367C20.2672 17.6094 19.9774 25.5391 23.3625 32.2383C23.893 33.2992 24.4945 34.311 25.1344 35.2407L25.3258 35.5141C25.8672 36.3071 26.4742 37.2039 27.2508 37.9039C27.5188 38.2102 27.8086 38.5055 28.093 38.7899L28.2297 38.9321L28.3445 39.0469C28.6344 39.3258 28.9297 39.6102 29.236 39.8836H29.2414C29.2633 39.9164 29.2961 39.9383 29.3235 39.9657C29.668 40.2719 30.018 40.5617 30.4828 40.9282L30.6086 41.0211C30.9695 41.311 31.336 41.5844 31.7133 41.8524C31.7516 41.8797 31.7899 41.9071 31.8281 41.9344C31.9594 42.0219 32.0906 42.1039 32.2219 42.1969L32.3531 42.2844L32.5063 42.3828C32.7852 42.5688 33.0586 42.7383 33.4469 42.9625C33.6985 43.1157 33.9664 43.2688 34.1414 43.3563C34.218 43.4 34.3 43.4438 34.4914 43.5477L34.918 43.7719C34.9399 43.7828 35.0383 43.8266 35.0602 43.8375C35.3391 43.9797 35.6289 44.1164 35.9188 44.2477L36.3617 44.4446C36.6516 44.5703 36.9469 44.6907 37.3078 44.8274L37.4719 44.8875C37.4828 44.8985 37.6195 44.9477 37.6305 44.9532C37.893 45.0461 38.161 45.1391 38.4289 45.2266L39.0414 45.4289C39.3477 45.5328 39.7031 45.6532 40.0914 45.7188C42 46.036 43.8539 46.2 45.6094 46.2C45.8172 46.2 46.025 46.1946 46.2274 46.1946C61.682 45.8555 65.7016 32.725 65.7399 32.5938C65.9313 31.9321 65.6195 31.2266 64.9961 30.9313C64.3727 30.636 63.6289 30.8438 63.2406 31.4125C59.325 37.1328 51.9203 39.55 44.3789 37.5594C44.0289 37.4719 43.6899 37.3735 43.2688 37.2367C43.1977 37.2149 43.1375 37.193 43.0227 37.1492C42.7766 37.0727 42.536 36.9907 42.2625 36.8867L41.8742 36.7391C41.65 36.6516 41.4258 36.5641 41.1524 36.4438L40.9719 36.3617C40.6383 36.2196 40.3156 36.061 40.0258 35.9188L39.2274 35.5032C39.0469 35.4157 38.8883 35.3172 38.6422 35.1696L38.5055 35.093L38.3688 35.011C38.1664 34.8907 37.9641 34.7649 37.7781 34.6336L37.6469 34.5516C37.636 34.5461 37.5266 34.4696 37.5156 34.4586C37.3516 34.3547 37.193 34.2508 37.0399 34.1524C36.7008 33.9117 36.3672 33.6602 35.9789 33.3539L35.8258 33.2282C32.2164 30.3461 29.5477 26.4961 28.2953 22.3672C27.1305 18.5774 27.9945 13.6172 30.6086 9.10003C30.9477 8.51487 30.8219 7.77112 30.3024 7.33362C30.0453 7.11487 29.7281 7.00003 29.411 7.00003ZM14.0055 11.2C13.6719 11.2 13.3328 11.3203 13.0649 11.561C10.3906 13.9617 8.38908 17.0735 8.17033 17.4289C2.45001 25.7578 3.5547 38.7024 7.48126 46.6157C7.55783 46.7797 7.63986 46.9383 7.72189 47.0969L7.77658 47.1844C7.84767 47.343 7.9297 47.5071 7.95705 47.5399C8.0008 47.6438 8.06642 47.7586 8.09376 47.7914C8.15939 47.9282 8.22501 48.0485 8.34533 48.2563L8.79376 49.0274C8.85939 49.1313 8.92501 49.2407 8.94689 49.2789C9.03439 49.4211 9.12736 49.5688 9.22033 49.7164L9.43908 50.0664C9.5047 50.1703 9.57033 50.2633 9.61408 50.318C9.83283 50.6571 10.0516 50.9961 10.2922 51.3188C10.3031 51.3352 10.3141 51.3461 10.325 51.3571L10.4125 51.4774C10.6094 51.7617 10.8117 52.0352 10.9922 52.2594L11.7906 53.2711C11.8016 53.2821 11.8891 53.386 11.8945 53.3969L12.0094 53.5282C12.25 53.8235 12.507 54.1188 12.7641 54.4032C12.8024 54.4469 12.8406 54.4852 12.8789 54.5289C13.125 54.7969 13.3766 55.0649 13.6391 55.3438L13.8906 55.5844C14.0985 55.8032 14.3063 56.0164 14.525 56.2188C14.525 56.2242 14.6289 56.3227 14.6289 56.3227L14.8477 56.525C15.1102 56.7766 15.3836 57.0282 15.5914 57.2032C15.6024 57.2196 15.7992 57.3891 15.8156 57.4C16.0727 57.6297 16.3297 57.8485 16.5922 58.0617L17.932 59.1227C18.1563 59.2867 18.386 59.4508 18.6485 59.6422C18.736 59.7078 18.8289 59.7735 18.9219 59.8336C18.9602 59.8664 19.0039 59.8992 19.0313 59.9157L20.0375 60.5883C20.4039 60.8289 20.7703 61.0532 21.2188 61.3211L21.4594 61.4578C21.7383 61.6219 22.0227 61.786 22.2906 61.9282C22.4492 62.0157 22.6078 62.0922 22.7445 62.1633C22.936 62.2672 23.1438 62.3821 23.4609 62.5352C23.4883 62.5516 23.7125 62.661 23.7399 62.6719C24.057 62.8305 24.3797 62.9782 24.7844 63.1586C24.7844 63.1641 24.9156 63.2242 24.9156 63.2242C25.2875 63.3828 25.6485 63.536 26.1242 63.7274C26.2008 63.7602 26.2774 63.7875 26.2938 63.793C26.6328 63.9242 26.9883 64.0555 27.2781 64.1594C27.3055 64.1703 27.4531 64.2305 27.4805 64.2414C27.8688 64.3727 28.2516 64.4985 28.7438 64.6516C28.8258 64.6789 28.9133 64.7063 28.9242 64.7063L29.2031 64.7938C29.5422 64.8977 29.8813 65.0071 30.2477 65.0782C32.8508 65.5539 35.3938 65.8 37.8 65.8H37.8055C57.8594 65.8 64.2469 49.6617 64.3125 49.4977C64.5586 48.8469 64.2906 48.1141 63.6781 47.775C63.0766 47.4414 62.3109 47.6 61.8844 48.1524C56.7383 54.9282 47.0313 57.4438 35.9188 54.8899C35.6508 54.8242 35.3774 54.7477 35.1094 54.6657L34.5844 54.5071C34.2289 54.3977 33.8735 54.2774 33.5289 54.1571C33.5235 54.1571 33.3649 54.0969 33.3649 54.0969C33.0586 53.993 32.7524 53.8727 32.4844 53.7688L32.1781 53.6485C31.8391 53.5117 31.5 53.3696 31.1719 53.2219L30.9805 53.1399C30.6852 53.0032 30.4008 52.8719 30.1164 52.7297C30.0945 52.7188 29.8703 52.6094 29.8485 52.6039C29.6516 52.5055 29.4547 52.4016 29.2031 52.2649L28.0602 51.6524C27.9453 51.5758 27.825 51.5047 27.7102 51.4446C27.3656 51.2313 27.0102 51.018 26.6602 50.7938C26.5781 50.7446 26.507 50.6899 26.3703 50.5969C26.1297 50.4438 25.8945 50.2852 25.55 50.0446L25.4133 49.9461C25.1781 49.7821 24.9485 49.6071 24.757 49.4649C24.6367 49.3774 24.5164 49.2789 24.3195 49.1313C24.1445 48.9946 23.9695 48.8633 23.8055 48.7321L23.4992 48.4805C23.2422 48.2727 23.0016 48.0539 22.75 47.8407C22.7172 47.8078 22.6899 47.786 22.6516 47.7586C22.3727 47.5016 22.0883 47.2446 21.7492 46.9219L20.7594 45.9375C20.5188 45.6914 20.2781 45.4399 20.0047 45.1391C19.7531 44.8602 19.5125 44.5813 19.1899 44.1985L18.5992 43.4766C18.5281 43.3727 18.4516 43.2688 18.3586 43.1594C18.1563 42.886 17.9539 42.618 17.7516 42.3336C12.3047 34.8305 10.8828 19.168 15.1266 13.4313C15.5531 12.8571 15.4766 12.0477 14.9406 11.561C14.6781 11.3203 14.3391 11.2 14.0055 11.2Z" fill="white"/>
</svg>
