<svg width="40" height="40" viewBox="0 0 40 40" fill="none" xmlns="http://www.w3.org/2000/svg">
<path d="M22.5547 0.171875C22.0313 0.484375 21.9531 0.765625 21.9531 2.42188C21.9531 3.70312 21.9688 3.89062 22.1094 4.17188C22.3438 4.64062 22.6094 4.80469 23.1406 4.80469C23.6563 4.80469 23.9453 4.63281 24.1563 4.21094C24.3594 3.82812 24.3672 1.0625 24.1719 0.65625C23.8906 0.0703125 23.1172 -0.164062 22.5547 0.171875Z" fill="url(#paint0_linear_498:115)"/>
<path d="M16.3281 3.92188C16.0312 4.07031 15.9375 4.1875 15.7266 4.61719C15.5859 4.90625 13.3047 9.73438 10.6641 15.3594L5.85156 25.5781L9.19531 28.9219L12.5469 32.2656L23.1562 27.2734C29.7656 24.1641 33.8516 22.1953 33.9922 22.0625C34.2891 21.7812 34.4062 21.3438 34.3047 20.9531C34.2344 20.7109 32.8359 19.2812 25.8437 12.2891C21.1016 7.54688 17.3672 3.875 17.2422 3.82812C16.9141 3.71094 16.7109 3.73438 16.3281 3.92188Z" fill="url(#paint1_linear_498:115)"/>
<path d="M32.6951 3.89853C32.2811 4.09384 29.6404 6.75009 29.5701 7.05478C29.3123 8.09384 30.2654 8.92196 31.2107 8.47665C31.3436 8.40634 32.0779 7.72665 32.8357 6.96884C33.9764 5.81259 34.2186 5.53134 34.2889 5.25009C34.4529 4.65634 34.1482 4.05478 33.5701 3.83603C33.2576 3.71884 33.0545 3.73446 32.6951 3.89853Z" fill="url(#paint2_linear_498:115)"/>
<path d="M33.8435 13.9844C33.0622 14.4609 33.1013 15.5703 33.9138 16C34.2497 16.1719 34.3122 16.1797 35.7966 16.1562C37.4763 16.1328 37.5388 16.1172 37.9216 15.5937C38.156 15.2812 38.1482 14.6562 37.8982 14.3047C37.5857 13.875 37.3747 13.8281 35.6482 13.8281C34.2419 13.8281 34.0779 13.8438 33.8435 13.9844Z" fill="url(#paint3_linear_498:115)"/>
<path d="M3.07011 28.3751C2.14823 29.3126 1.96073 29.5392 1.91386 29.7892C1.79667 30.422 1.83573 30.4766 4.78104 33.4141C7.33573 35.9532 7.56229 36.1641 7.86698 36.211C8.39823 36.297 8.74979 36.0782 9.85916 34.9532L10.8592 33.9454L7.51542 30.6016L4.17948 27.2657L3.07011 28.3751Z" fill="url(#paint4_linear_498:115)"/>
<path d="M18.3828 32.0938L14.2969 34.0235L17.2109 36.9376C20.3125 40.0391 20.3594 40.0782 20.9922 39.9688C21.25 39.9141 21.5859 39.6094 23.7344 37.4766C26.4063 34.8126 26.4219 34.7891 26.2422 34.1172C26.1719 33.836 25.8906 33.5235 24.3516 31.9688C23.3594 30.9766 22.5234 30.1563 22.5 30.1641C22.4766 30.1641 20.625 31.0391 18.3828 32.0938Z" fill="url(#paint5_linear_498:115)"/>
<defs>
<linearGradient id="paint0_linear_498:115" x1="23.1334" y1="4.80469" x2="23.1334" y2="0.0173407" gradientUnits="userSpaceOnUse">
<stop stop-color="#C2B4FF"/>
<stop offset="1" stop-color="#5C38F1"/>
</linearGradient>
<linearGradient id="paint1_linear_498:115" x1="20.0961" y1="32.2656" x2="20.0961" y2="3.7565" gradientUnits="userSpaceOnUse">
<stop stop-color="#C2B4FF"/>
<stop offset="1" stop-color="#5C38F1"/>
</linearGradient>
<linearGradient id="paint2_linear_498:115" x1="31.9302" y1="8.59985" x2="31.9302" y2="3.75977" gradientUnits="userSpaceOnUse">
<stop stop-color="#C2B4FF"/>
<stop offset="1" stop-color="#5C38F1"/>
</linearGradient>
<linearGradient id="paint3_linear_498:115" x1="35.686" y1="16.1659" x2="35.686" y2="13.8281" gradientUnits="userSpaceOnUse">
<stop stop-color="#C2B4FF"/>
<stop offset="1" stop-color="#5C38F1"/>
</linearGradient>
<linearGradient id="paint4_linear_498:115" x1="6.37001" y1="36.2278" x2="6.37001" y2="27.2657" gradientUnits="userSpaceOnUse">
<stop stop-color="#C2B4FF"/>
<stop offset="1" stop-color="#5C38F1"/>
</linearGradient>
<linearGradient id="paint5_linear_498:115" x1="20.3019" y1="39.9982" x2="20.3019" y2="30.1641" gradientUnits="userSpaceOnUse">
<stop stop-color="#C2B4FF"/>
<stop offset="1" stop-color="#5C38F1"/>
</linearGradient>
</defs>
</svg>
