<svg width="40" height="40" viewBox="0 0 40 40" fill="none" xmlns="http://www.w3.org/2000/svg">
<path d="M11.3281 4.95313L2.77344 9.89844V19.9219V29.9453L11.4141 34.9297L20.0469 39.9219L28.6797 34.9375L37.3047 29.9609V19.9219V9.88282L28.75 4.94532C24.0469 2.22657 20.125 3.8147e-06 20.0391 0.00781631C19.9531 0.00781631 16.0312 2.23438 11.3281 4.95313ZM22.8125 14.4141C23.375 14.6953 23.8281 14.9375 23.8281 14.9609C23.8281 15.0391 18.3594 25.9375 18.3203 25.9375C18.2969 25.9375 17.8203 25.7109 17.2656 25.4297L16.25 24.9219L19.0078 19.4141C20.5156 16.3828 21.7656 13.9063 21.7812 13.9063C21.7891 13.9063 22.2578 14.1328 22.8125 14.4141ZM12.5547 15.9531L13.3594 16.7578L11.7812 18.3359L10.1953 19.9219L11.7812 21.5078L13.3594 23.0859L12.5391 23.9063L11.7188 24.7266L9.3125 22.3203L6.91406 19.9219L9.29688 17.5391C10.6094 16.2266 11.6953 15.1563 11.7188 15.1563C11.7344 15.1563 12.1172 15.5156 12.5547 15.9531ZM30.8594 17.5391L33.2422 19.9219L30.8594 22.3047C29.5469 23.6172 28.4453 24.6875 28.3984 24.6875C28.2969 24.6875 26.7969 23.1875 26.7969 23.0859C26.7969 23.0469 27.4922 22.3125 28.3359 21.4688L29.8828 19.9219L28.3359 18.375C27.4922 17.5313 26.7969 16.7969 26.7969 16.7578C26.7969 16.6563 28.2969 15.1563 28.3984 15.1563C28.4453 15.1563 29.5469 16.2266 30.8594 17.5391Z" fill="url(#paint0_linear_503:289)"/>
<defs>
<linearGradient id="paint0_linear_503:289" x1="20.0391" y1="39.9219" x2="20.0391" y2="0.00779724" gradientUnits="userSpaceOnUse">
<stop stop-color="#006098"/>
<stop offset="1" stop-color="#8FD2FF"/>
</linearGradient>
</defs>
</svg>
