<svg width="40" height="40" viewBox="0 0 40 40" fill="none" xmlns="http://www.w3.org/2000/svg">
<path d="M9.99967 3.33331H29.9997C30.4417 3.33331 30.8656 3.50891 31.1782 3.82147C31.4907 4.13403 31.6663 4.55795 31.6663 4.99998V35C31.6663 35.442 31.4907 35.8659 31.1782 36.1785C30.8656 36.4911 30.4417 36.6666 29.9997 36.6666H9.99967C9.55765 36.6666 9.13372 36.4911 8.82116 36.1785C8.5086 35.8659 8.33301 35.442 8.33301 35V4.99998C8.33301 4.55795 8.5086 4.13403 8.82116 3.82147C9.13372 3.50891 9.55765 3.33331 9.99967 3.33331ZM19.9997 28.3333C19.5576 28.3333 19.1337 28.5089 18.8212 28.8215C18.5086 29.134 18.333 29.558 18.333 30C18.333 30.442 18.5086 30.8659 18.8212 31.1785C19.1337 31.4911 19.5576 31.6666 19.9997 31.6666C20.4417 31.6666 20.8656 31.4911 21.1782 31.1785C21.4907 30.8659 21.6663 30.442 21.6663 30C21.6663 29.558 21.4907 29.134 21.1782 28.8215C20.8656 28.5089 20.4417 28.3333 19.9997 28.3333Z" fill="url(#paint0_linear_498:101)"/>
<defs>
<linearGradient id="paint0_linear_498:101" x1="7.99963" y1="3" x2="31.9996" y2="34" gradientUnits="userSpaceOnUse">
<stop stop-color="#EA9E78"/>
<stop offset="1" stop-color="#FFCCAF"/>
</linearGradient>
</defs>
</svg>
