<svg width="40" height="30" viewBox="0 0 40 30" fill="none" xmlns="http://www.w3.org/2000/svg">
<path d="M18.5156 1.95312V3.4375H21.1719H23.8281V7.5V11.5625L24.3594 11.1328C24.6484 10.8984 25.1484 10.5547 25.4766 10.375L26.0781 10.0391L25.8984 9.6875C25.4688 8.82812 25.3516 7.82031 25.5859 6.91406C26.0625 5.09375 27.9531 3.85156 29.8125 4.14062C31.7188 4.4375 33.0469 6 33.0469 7.9375C33.0469 8.625 32.8828 9.28906 32.5859 9.77344L32.4297 10.0234L33.0234 10.3594C33.7969 10.8047 34.3438 11.2344 34.9219 11.8438C36.3594 13.3828 37.0312 15.1484 37.0312 17.3906V18.3594H30.4297H23.8281V20.1562V21.9531H25.2188H26.6016L27.6562 22.8594C28.2344 23.3594 28.8359 23.8672 29 23.9922L29.2812 24.2188L30.6016 23.0859L31.9141 21.9609L35.9609 21.9531H40V11.2109V0.46875H29.2578H18.5156V1.95312Z" fill="url(#paint0_linear_502:237)"/>
<path d="M0 16.5236V27.2658H4.04688H8.09375L9.41406 28.3986C10.7109 29.508 10.7422 29.5236 10.8984 29.383C10.9844 29.3048 11.5781 28.797 12.2109 28.258L13.3672 27.2658H17.4297H21.4844V16.5236V5.7814H10.7422H0V16.5236ZM9.375 10.8205C9.60938 10.883 10.0078 11.0392 10.2656 11.172L10.7266 11.4064L11.2812 11.133C13.0469 10.258 15.125 10.6095 16.5234 12.0158C17.3281 12.8127 17.8828 14.1252 17.8906 15.2189C17.8906 16.2111 17.3438 17.6642 16.5703 18.672C16.0391 19.383 14.6406 20.7111 13.6953 21.4298C12.7734 22.1252 10.875 23.383 10.7422 23.383C10.4844 23.383 7.61719 21.3595 6.5625 20.4377C4.53906 18.6564 3.5 16.7345 3.61719 14.9455C3.76562 12.7658 5.41406 11.008 7.61719 10.672C7.98438 10.6173 8.89844 10.6955 9.375 10.8205Z" fill="url(#paint1_linear_502:237)"/>
<path d="M7.69523 13.0391C6.59367 13.3282 5.84367 14.375 5.96867 15.461C6.13273 16.836 7.65617 18.5547 10.3359 20.3828C10.7968 20.6953 10.7109 20.7344 12.0937 19.6953C13.2499 18.8282 14.4374 17.6719 14.9062 16.9532C15.3437 16.2813 15.5859 15.5078 15.5155 14.9844C15.3437 13.6875 14.1171 12.7813 12.8671 13.0469C12.289 13.1641 11.8437 13.4766 11.2421 14.1797L10.7421 14.7657L10.3515 14.3203C9.75773 13.625 9.44523 13.3438 9.09367 13.1953C8.71867 13.0235 8.03117 12.9532 7.69523 13.0391Z" fill="url(#paint2_linear_502:237)"/>
<path d="M28.7969 6.51581C28.1875 6.74237 27.8125 7.27362 27.8125 7.92987C27.8125 9.42206 29.875 9.92206 30.5469 8.58612C30.7813 8.14081 30.7578 7.53925 30.4922 7.133C30.125 6.56268 29.3984 6.29706 28.7969 6.51581Z" fill="url(#paint3_linear_502:237)"/>
<path d="M28.2031 11.8283C26.6562 12.1564 25.3828 13.0705 24.5703 14.4299C24.3125 14.8674 23.9844 15.6955 23.9844 15.9142C23.9844 16.0002 24.8984 16.0158 29.2656 16.0158H34.5469L34.4922 15.7189C34.4062 15.2736 33.9687 14.3908 33.5547 13.8439C32.8828 12.9533 31.7656 12.2111 30.6641 11.9142C30.0156 11.7346 28.8281 11.6955 28.2031 11.8283Z" fill="url(#paint4_linear_502:237)"/>
<defs>
<linearGradient id="paint0_linear_502:237" x1="29.2578" y1="24.2188" x2="29.2578" y2="0.46875" gradientUnits="userSpaceOnUse">
<stop stop-color="#96DEDA"/>
<stop offset="1" stop-color="#50C9C3"/>
</linearGradient>
<linearGradient id="paint1_linear_502:237" x1="10.7422" y1="29.4445" x2="10.7422" y2="5.7814" gradientUnits="userSpaceOnUse">
<stop stop-color="#96DEDA"/>
<stop offset="1" stop-color="#50C9C3"/>
</linearGradient>
<linearGradient id="paint2_linear_502:237" x1="10.7413" y1="20.5767" x2="10.7413" y2="13.0005" gradientUnits="userSpaceOnUse">
<stop stop-color="#96DEDA"/>
<stop offset="1" stop-color="#50C9C3"/>
</linearGradient>
<linearGradient id="paint3_linear_502:237" x1="29.2603" y1="9.362" x2="29.2603" y2="6.4395" gradientUnits="userSpaceOnUse">
<stop stop-color="#96DEDA"/>
<stop offset="1" stop-color="#50C9C3"/>
</linearGradient>
<linearGradient id="paint4_linear_502:237" x1="29.2656" y1="16.0158" x2="29.2656" y2="11.7494" gradientUnits="userSpaceOnUse">
<stop stop-color="#96DEDA"/>
<stop offset="1" stop-color="#50C9C3"/>
</linearGradient>
</defs>
</svg>
