<svg width="70" height="73" viewBox="0 0 70 73" fill="none" xmlns="http://www.w3.org/2000/svg">
<path d="M42.9295 5.18585C40.3879 4.74965 36.6678 4.54866 34.1426 4.56149C31.7757 4.56435 29.4132 4.77319 27.0797 5.18585C20.8262 6.32622 19.6873 8.70676 19.6873 13.1029V18.246H34.9998V20.5268H14.7135C9.03145 20.5268 4.41992 27.6071 4.37481 36.3666C4.37481 36.4079 4.37481 36.4493 4.37481 36.492C4.37284 38.0235 4.51618 39.5515 4.80274 41.0536C6.07285 47.6506 10.0295 52.4573 14.7135 52.4573H17.4998V44.7598C17.4998 40.2981 20.349 36.2141 25.0193 35.3374L26.3687 35.1621H42.9295C43.625 35.1649 44.3177 35.069 44.9885 34.877C46.522 34.45 47.8764 33.505 48.8397 32.1898C49.8031 30.8745 50.321 29.2634 50.3123 27.6085V13.1029C50.3123 8.98045 46.9381 5.8715 42.9295 5.18585ZM26.6504 15.0387C26.0988 15.0407 25.559 14.8718 25.0996 14.5535C24.6401 14.2352 24.2817 13.7818 24.0697 13.2508C23.8577 12.7198 23.8018 12.1352 23.9089 11.571C24.0161 11.0068 24.2815 10.4885 24.6716 10.0818C25.0616 9.67513 25.5587 9.39838 26.0999 9.28666C26.641 9.17494 27.2017 9.23328 27.711 9.45429C28.2203 9.6753 28.6551 10.049 28.9604 10.5281C29.2657 11.0071 29.4277 11.5699 29.4258 12.145C29.426 12.5251 29.3543 12.9014 29.2149 13.2526C29.0755 13.6038 28.871 13.9228 28.6133 14.1916C28.3555 14.4603 28.0495 14.6735 27.7127 14.8188C27.3759 14.9642 27.0149 15.0389 26.6504 15.0387V15.0387Z" fill="white"/>
<path d="M64.9797 30.9327C63.5168 24.8587 59.7283 20.5267 55.2863 20.5267H52.865V27.2906C52.865 32.9312 49.3104 37.0152 44.9709 37.7151C44.5326 37.7859 44.0897 37.8217 43.6461 37.822H27.0813C26.3786 37.8213 25.6788 37.9147 24.999 38.0999C21.9488 38.9353 19.6875 41.5809 19.6875 45.0121V59.5191C19.6875 63.6529 23.6715 66.0762 27.5803 67.2608C32.2574 68.6792 37.3529 68.9357 42.9502 67.2608C46.6676 66.1532 50.3125 63.9138 50.3125 59.5191V54.738H35V52.4573H55.2863C59.3113 52.4573 62.799 48.9036 64.508 43.7177C65.2585 41.3895 65.6359 38.9482 65.625 36.492C65.6288 34.6184 65.4121 32.7513 64.9797 30.9327ZM43.2729 57.589C43.8245 57.587 44.3642 57.7559 44.8237 58.0742C45.2831 58.3925 45.6416 58.8459 45.8535 59.3769C46.0655 59.9079 46.1215 60.4925 46.0143 61.0567C45.9072 61.6209 45.6417 62.1392 45.2517 62.5459C44.8616 62.9526 44.3645 63.2293 43.8234 63.341C43.2823 63.4528 42.7215 63.3944 42.2122 63.1734C41.703 62.9524 41.2681 62.5787 40.9628 62.0996C40.6575 61.6206 40.4956 61.0578 40.4975 60.4827C40.4973 60.1026 40.5689 59.7263 40.7084 59.3751C40.8478 59.0239 41.0522 58.7049 41.31 58.4361C41.5677 58.1674 41.8737 57.9542 42.2105 57.8089C42.5473 57.6635 42.9083 57.5888 43.2729 57.589Z" fill="white"/>
</svg>
