<svg width="61" height="61" viewBox="0 0 61 61" fill="none" xmlns="http://www.w3.org/2000/svg">
<g clip-path="url(#clip0)">
<path d="M48.2358 15.8495H28.2002C27.5359 15.8495 26.8989 16.1133 26.4293 16.583C25.9596 17.0527 25.6957 17.6897 25.6957 18.3539V50.9117H10.669C10.0048 50.9117 9.36779 50.6479 8.89812 50.1782C8.42844 49.7085 8.16458 49.0715 8.16458 48.4073V8.33611C8.16458 7.67189 8.42844 7.03488 8.89812 6.5652C9.36779 6.09553 10.0048 5.83167 10.669 5.83167H45.7313C46.3955 5.83167 47.0326 6.09553 47.5022 6.5652C47.9719 7.03488 48.2358 7.67189 48.2358 8.33611V15.8495ZM33.2091 20.8584H53.2447C53.9089 20.8584 54.5459 21.1222 55.0156 21.5919C55.4852 22.0616 55.7491 22.6986 55.7491 23.3628V53.4162C55.7491 54.0804 55.4852 54.7174 55.0156 55.1871C54.5459 55.6568 53.9089 55.9206 53.2447 55.9206H33.2091C32.5448 55.9206 31.9078 55.6568 31.4382 55.1871C30.9685 54.7174 30.7046 54.0804 30.7046 53.4162V23.3628C30.7046 22.6986 30.9685 22.0616 31.4382 21.5919C31.9078 21.1222 32.5448 20.8584 33.2091 20.8584Z" fill="white"/>
</g>
<defs>
<clipPath id="clip0">
<rect width="60.1068" height="60.1068" fill="white" transform="translate(0.651245 0.822754)"/>
</clipPath>
</defs>
</svg>
