<svg width="61" height="61" viewBox="0 0 61 61" fill="none" xmlns="http://www.w3.org/2000/svg">
<g clip-path="url(#clip0)">
<path d="M36.6345 41.4949C35.2934 43.4019 33.832 45.2213 32.2592 46.9421C36.4466 51.0068 40.3436 52.9102 42.5024 51.6605C44.6662 50.4133 44.9643 46.0881 43.5392 40.4305C41.4029 40.9064 39.0813 41.267 36.6345 41.4949ZM33.3536 41.7128C31.4544 41.7914 29.5527 41.7914 27.6535 41.7128C28.5977 42.945 29.5519 44.087 30.5036 45.1289C31.4553 44.087 32.407 42.945 33.3536 41.7128ZM45.9761 21.9427C52.6504 23.8561 57.0082 27.0368 57.0082 30.8761C57.0082 34.7154 52.6504 37.896 45.9761 39.8094C47.654 46.5464 47.0805 51.9109 43.7571 53.8293C40.4312 55.7503 35.4974 53.5664 30.5036 48.7453C25.5097 53.5664 20.5759 55.7503 17.25 53.8293C13.9266 51.9109 13.3506 46.5464 15.0311 39.8094C8.35673 37.896 3.99899 34.7154 3.99899 30.8761C3.99899 27.0368 8.35673 23.8561 15.0311 21.9427C13.3531 15.2057 13.9266 9.84121 17.25 7.9228C20.5759 6.00189 25.5097 8.18577 30.5036 13.0068C35.4974 8.18577 40.4312 6.00189 43.7571 7.9228C47.0805 9.84121 47.6565 15.2057 45.9761 21.9427ZM43.5392 21.3216C44.9668 15.6615 44.6662 11.3389 42.5049 10.0917C40.3436 8.84193 36.4466 10.7453 32.2617 14.81C33.7418 16.4204 35.2144 18.2511 36.6345 20.2572C39.0838 20.4826 41.4029 20.8433 43.5392 21.3216ZM17.4679 40.4305C16.0404 46.0906 16.3409 50.4133 18.5023 51.6605C20.6636 52.9102 24.5605 51.0068 28.7455 46.9421C27.1735 45.2212 25.7129 43.4018 24.3727 41.4949C22.0508 41.2874 19.7445 40.9319 17.4679 40.4305ZM27.6535 20.0393C29.5527 19.9607 31.4544 19.9607 33.3536 20.0393C32.4533 18.8609 31.5024 17.722 30.5036 16.6258C29.5519 17.6676 28.6002 18.8096 27.6535 20.0418V20.0393ZM24.3727 20.2572C25.7145 18.3502 27.1768 16.5308 28.7505 14.81C24.5605 10.7453 20.6611 8.84193 18.5048 10.0917C16.3409 11.3389 16.0429 15.6641 17.4679 21.3216C19.6042 20.8458 21.9258 20.4851 24.3727 20.2572ZM35.247 39.0907C37.0298 36.4744 38.6145 33.7286 39.9879 30.8761C38.6145 28.0236 37.0298 25.2777 35.247 22.6615C32.0891 22.4251 28.918 22.4251 25.7601 22.6615C23.9774 25.2777 22.3927 28.0236 21.0192 30.8761C22.3927 33.7286 23.9774 36.4744 25.7601 39.0907C28.918 39.3271 32.0891 39.3271 35.247 39.0907ZM38.4627 38.7626C40.0029 38.5622 41.468 38.3043 42.8455 38.0012C42.3951 36.5881 41.8837 35.1952 41.3128 33.8263C40.4312 35.5095 39.4804 37.1555 38.4627 38.7601V38.7626ZM22.5444 22.9871C21.0042 23.1874 19.5391 23.4454 18.1616 23.7484C18.5874 25.0908 19.0983 26.4883 19.6944 27.9233C20.576 26.2401 21.5268 24.5941 22.5444 22.9896V22.9871ZM18.1616 37.9987C19.5391 38.3018 21.0042 38.5572 22.5444 38.7601C21.5268 37.1555 20.576 35.5095 19.6944 33.8263C19.0983 35.2589 18.5874 36.6563 18.1616 37.9987ZM15.7123 37.3851C16.366 35.2964 17.215 33.1075 18.2418 30.8736C17.215 28.6396 16.366 26.4507 15.7123 24.362C10.0973 25.9573 6.50344 28.3791 6.50344 30.8736C6.50344 33.368 10.0973 35.7898 15.7123 37.3851ZM42.8455 23.7484C41.468 23.4454 40.0029 23.1899 38.4627 22.9871C39.4804 24.5916 40.4312 26.2376 41.3128 27.9208C41.9088 26.4883 42.4197 25.0908 42.8455 23.7484ZM45.2948 24.362C44.6412 26.4507 43.7922 28.6396 42.7654 30.8736C43.7922 33.1075 44.6412 35.2964 45.2948 37.3851C50.9098 35.7898 54.5037 33.368 54.5037 30.8736C54.5037 28.3791 50.9098 25.9573 45.2948 24.362ZM30.5036 35.5844C29.8853 35.5844 29.273 35.4627 28.7018 35.226C28.1305 34.9894 27.6115 34.6426 27.1743 34.2054C26.737 33.7682 26.3902 33.2491 26.1536 32.6779C25.917 32.1066 25.7952 31.4944 25.7952 30.8761C25.7952 30.2578 25.917 29.6455 26.1536 29.0743C26.3902 28.503 26.737 27.984 27.1743 27.5468C27.6115 27.1095 28.1305 26.7627 28.7018 26.5261C29.273 26.2895 29.8853 26.1677 30.5036 26.1677C31.7523 26.1677 32.9499 26.6638 33.8329 27.5468C34.7159 28.4297 35.2119 29.6273 35.2119 30.8761C35.2119 32.1248 34.7159 33.3224 33.8329 34.2054C32.9499 35.0884 31.7523 35.5844 30.5036 35.5844Z" fill="white"/>
</g>
<defs>
<clipPath id="clip0">
<rect width="60.1068" height="60.1068" fill="white" transform="translate(0.450195 0.822754)"/>
</clipPath>
</defs>
</svg>
