<svg width="70" height="70" viewBox="0 0 70 70" fill="none" xmlns="http://www.w3.org/2000/svg">
<path d="M42.14 47.3666C40.5782 49.5874 38.8763 51.7063 37.0446 53.7103C41.9212 58.4441 46.4596 60.6607 48.9737 59.2053C51.4937 57.7528 51.8408 52.7157 50.1812 46.127C47.6933 46.6811 44.9896 47.1011 42.14 47.3666V47.3666ZM38.3191 47.6203C36.1073 47.7119 33.8926 47.7119 31.6808 47.6203C32.7804 49.0553 33.8917 50.3853 35 51.5986C36.1083 50.3853 37.2166 49.0553 38.3191 47.6203ZM53.0191 24.5961C60.7921 26.8245 65.8671 30.5286 65.8671 34.9999C65.8671 39.4711 60.7921 43.1753 53.0191 45.4036C54.9733 53.2495 54.3054 59.497 50.435 61.7312C46.5616 63.9682 40.8158 61.4249 35 55.8103C29.1842 61.4249 23.4383 63.9682 19.565 61.7312C15.6946 59.497 15.0237 53.2495 16.9808 45.4036C9.2079 43.1753 4.1329 39.4711 4.1329 34.9999C4.1329 30.5286 9.2079 26.8245 16.9808 24.5961C15.0267 16.7503 15.6946 10.5028 19.565 8.26864C23.4383 6.03156 29.1842 8.57489 35 14.1895C40.8158 8.57489 46.5616 6.03156 50.435 8.26864C54.3054 10.5028 54.9762 16.7503 53.0191 24.5961V24.5961ZM50.1812 23.8728C51.8437 17.2811 51.4937 12.247 48.9766 10.7945C46.4596 9.33906 41.9212 11.5557 37.0475 16.2895C38.7712 18.1649 40.4862 20.297 42.14 22.6332C44.9925 22.8957 47.6933 23.3157 50.1812 23.8728ZM19.8187 46.127C18.1562 52.7186 18.5062 57.7528 21.0233 59.2053C23.5404 60.6607 28.0787 58.4441 32.9525 53.7103C31.1218 51.7062 29.4208 49.5873 27.86 47.3666C25.1559 47.1249 22.4701 46.7108 19.8187 46.127V46.127ZM31.6808 22.3795C33.8926 22.2879 36.1073 22.2879 38.3191 22.3795C37.2706 21.0071 36.1632 19.6807 35 18.4041C33.8917 19.6174 32.7833 20.9474 31.6808 22.3824V22.3795ZM27.86 22.6332C29.4227 20.4123 31.1256 18.2934 32.9583 16.2895C28.0787 11.5557 23.5375 9.33906 21.0262 10.7945C18.5062 12.247 18.1592 17.2841 19.8187 23.8728C22.3067 23.3186 25.0104 22.8986 27.86 22.6332V22.6332ZM40.5241 44.5666C42.6004 41.5197 44.4459 38.3219 46.0454 34.9999C44.4459 31.6779 42.6004 28.4801 40.5241 25.4332C36.8465 25.1579 33.1534 25.1579 29.4758 25.4332C27.3996 28.4801 25.5541 31.6779 23.9546 34.9999C25.5541 38.3219 27.3996 41.5197 29.4758 44.5666C33.1534 44.8419 36.8465 44.8419 40.5241 44.5666V44.5666ZM44.2692 44.1845C46.0629 43.9511 47.7691 43.6507 49.3733 43.2978C48.8487 41.6521 48.2532 40.0299 47.5883 38.4357C46.5616 40.396 45.4543 42.3129 44.2692 44.1816V44.1845ZM25.7308 25.8124C23.9371 26.0457 22.2308 26.3461 20.6267 26.6991C21.1225 28.2624 21.7175 29.8899 22.4117 31.5611C23.4383 29.6009 24.5457 27.684 25.7308 25.8153V25.8124ZM20.6267 43.2949C22.2308 43.6478 23.9371 43.9453 25.7308 44.1816C24.5457 42.3129 23.4383 40.396 22.4117 38.4357C21.7175 40.1041 21.1225 41.7316 20.6267 43.2949ZM17.7742 42.5803C18.5354 40.1478 19.5242 37.5986 20.72 34.997C19.5242 32.3953 18.5354 29.8461 17.7742 27.4136C11.235 29.2716 7.04957 32.092 7.04957 34.997C7.04957 37.902 11.235 40.7224 17.7742 42.5803ZM49.3733 26.6991C47.7691 26.3461 46.0629 26.0486 44.2692 25.8124C45.4543 27.6811 46.5616 29.598 47.5883 31.5582C48.2825 29.8899 48.8775 28.2624 49.3733 26.6991V26.6991ZM52.2258 27.4136C51.4646 29.8461 50.4758 32.3953 49.28 34.997C50.4758 37.5986 51.4646 40.1478 52.2258 42.5803C58.765 40.7224 62.9504 37.902 62.9504 34.997C62.9504 32.092 58.765 29.2716 52.2258 27.4136ZM35 40.4832C34.2799 40.4832 33.5669 40.3414 32.9016 40.0658C32.2363 39.7903 31.6319 39.3864 31.1227 38.8772C30.6135 38.368 30.2096 37.7635 29.934 37.0983C29.6585 36.433 29.5167 35.72 29.5167 34.9999C29.5167 34.2798 29.6585 33.5668 29.934 32.9015C30.2096 32.2362 30.6135 31.6318 31.1227 31.1226C31.6319 30.6134 32.2363 30.2095 32.9016 29.934C33.5669 29.6584 34.2799 29.5166 35 29.5166C36.4543 29.5166 37.849 30.0943 38.8773 31.1226C39.9056 32.1509 40.4833 33.5456 40.4833 34.9999C40.4833 36.4542 39.9056 37.8489 38.8773 38.8772C37.849 39.9055 36.4543 40.4832 35 40.4832V40.4832Z" fill="white"/>
</svg>
