<svg width="70" height="70" viewBox="0 0 70 70" fill="none" xmlns="http://www.w3.org/2000/svg">
<g clip-path="url(#clip0)">
<path d="M61.25 20.4166L58.3333 58.3333L20.4167 61.25L61.25 20.4166Z" fill="#9A9A9A"/>
<path d="M40.8333 40.8333L58.3333 58.3333L61.25 20.4166L40.8333 40.8333Z" fill="#BBBBBB"/>
<path d="M22.9721 22.9723C19.9088 26.0357 17.1867 29.3801 14.9611 32.8148C12.7355 36.2494 11.05 39.7069 10.0009 42.9899C8.95172 46.2729 8.55948 49.3171 8.84654 51.9486C9.1336 54.5802 10.0943 56.7476 11.6739 58.3271C13.2534 59.9066 15.4209 60.8673 18.0524 61.1542C20.684 61.4412 23.7282 61.0489 27.0112 59.9996C30.2941 58.9504 33.7516 57.2647 37.1861 55.039C40.6207 52.8133 43.965 50.091 47.0283 47.0277C50.0916 43.9643 52.8137 40.6198 55.0393 37.1852C57.2649 33.7506 58.9504 30.2931 59.9995 27.0101C61.0487 23.7271 61.4409 20.6829 61.1539 18.0513C60.8668 15.4198 59.9061 13.2524 58.3265 11.6729C56.747 10.0934 54.5795 9.13271 51.948 8.84574C49.3164 8.55878 46.2722 8.95112 42.9892 10.0004C39.7063 11.0496 36.2488 12.7352 32.8143 14.961C29.3797 17.1867 26.0354 19.909 22.9721 22.9723V22.9723Z" fill="#BFBFBF"/>
<path d="M14.5833 24.7917L24.7917 14.5833L36.4583 8.75L45.2083 14.5833L40.8333 27.7083L27.7083 39.375L14.5833 43.75L8.75 35L14.5833 24.7917Z" fill="#ECECEC"/>
<path d="M45.2083 14.5833L36.4583 8.75H52.5L45.2083 14.5833ZM61.25 21.875L45.2083 14.5833L40.8333 27.7083L61.25 21.875ZM27.7083 39.375L47.0094 47.0094L40.8333 27.7083L27.7083 39.375ZM14.5833 43.75L20.4167 61.25L27.7083 39.375L14.5833 43.75ZM8.75 35V51.0417L14.5833 43.75L8.75 35Z" fill="white"/>
</g>
<defs>
<clipPath id="clip0">
<rect width="70" height="70" fill="white"/>
</clipPath>
</defs>
</svg>
