<svg width="34" height="32" viewBox="0 0 34 32" fill="none" xmlns="http://www.w3.org/2000/svg">
<path d="M33.6663 15V30C33.6663 30.442 33.4907 30.866 33.1782 31.1785C32.8656 31.4911 32.4417 31.6667 31.9997 31.6667H30.333C29.891 31.6667 29.4671 31.4911 29.1545 31.1785C28.8419 30.866 28.6663 30.442 28.6663 30V28.3333H5.33301V30C5.33301 30.442 5.15741 30.866 4.84485 31.1785C4.53229 31.4911 4.10837 31.6667 3.66634 31.6667H1.99967C1.55765 31.6667 1.13372 31.4911 0.821163 31.1785C0.508602 30.866 0.333008 30.442 0.333008 30V15L4.46634 5.35333C4.72355 4.75333 5.15127 4.24206 5.69643 3.88297C6.2416 3.52387 6.8802 3.33275 7.53301 3.33333H11.9997V0H21.9997V3.33333H26.468C27.1202 3.33341 27.7581 3.52483 28.3026 3.88388C28.8472 4.24294 29.2744 4.75386 29.5313 5.35333L33.6663 15ZM3.95967 15H30.0397L26.468 6.66667H7.53301L3.96134 15H3.95967ZM7.83301 23.3333C8.49605 23.3333 9.13193 23.0699 9.60078 22.6011C10.0696 22.1323 10.333 21.4964 10.333 20.8333C10.333 20.1703 10.0696 19.5344 9.60078 19.0656C9.13193 18.5967 8.49605 18.3333 7.83301 18.3333C7.16997 18.3333 6.53408 18.5967 6.06524 19.0656C5.5964 19.5344 5.33301 20.1703 5.33301 20.8333C5.33301 21.4964 5.5964 22.1323 6.06524 22.6011C6.53408 23.0699 7.16997 23.3333 7.83301 23.3333ZM26.1663 23.3333C26.8294 23.3333 27.4653 23.0699 27.9341 22.6011C28.4029 22.1323 28.6663 21.4964 28.6663 20.8333C28.6663 20.1703 28.4029 19.5344 27.9341 19.0656C27.4653 18.5967 26.8294 18.3333 26.1663 18.3333C25.5033 18.3333 24.8674 18.5967 24.3986 19.0656C23.9297 19.5344 23.6663 20.1703 23.6663 20.8333C23.6663 21.4964 23.9297 22.1323 24.3986 22.6011C24.8674 23.0699 25.5033 23.3333 26.1663 23.3333Z" fill="url(#paint0_linear_502:214)"/>
<defs>
<linearGradient id="paint0_linear_502:214" x1="0.199674" y1="-0.2" x2="33.7997" y2="31.8" gradientUnits="userSpaceOnUse">
<stop stop-color="#FFE300"/>
<stop offset="1" stop-color="#FEF399"/>
</linearGradient>
</defs>
</svg>
