<svg width="40" height="40" viewBox="0 0 40 40" fill="none" xmlns="http://www.w3.org/2000/svg">
<path d="M33.4371 1.1875C31.9371 1.875 26.9371 6.375 20.9371 12.4375L10.9371 22.5H7.43711C4.43711 22.5 3.74961 22.75 2.18711 24.375C1.18711 25.375 0.499614 26.375 0.687114 26.5C1.43711 27.125 5.06211 28.75 5.81211 28.75C6.31211 28.75 7.18711 28.1875 7.81211 27.5C8.43711 26.8125 9.68711 26.25 10.5621 26.25C12.0621 26.25 11.9996 26.4375 9.06211 29.375C6.68711 31.8125 6.12461 32.625 6.74961 33.25C7.37461 33.875 8.18711 33.3125 10.6246 30.9375L13.7496 27.875V29.6875C13.7496 30.6875 13.1246 32.125 12.3746 32.9375C11.0621 34.3125 11.0621 34.375 12.1871 36.875C12.8121 38.25 13.4371 39.375 13.6246 39.375C13.8121 39.375 14.8121 38.625 15.7496 37.6875C17.2496 36.25 17.4996 35.5625 17.4996 32.5625V29.0625L27.5621 19.0625C39.2496 7.5 41.6871 3.625 38.9996 1C37.7496 -0.3125 36.4996 -0.25 33.4371 1.1875Z" fill="url(#paint0_linear_2292_10)"/>
<path d="M2.1875 8.125L-0.1875 10.5625L1.625 11.3125C2.625 11.6875 4.125 12.25 5 12.625C5.875 12.9375 8.3125 13.875 10.375 14.6875L14.1875 16.125L18.125 12.1875L22 8.3125L13.5625 6.9375C8.9375 6.25 5.0625 5.625 4.875 5.625C4.75 5.625 3.5625 6.75 2.1875 8.125Z" fill="url(#paint1_linear_2292_10)"/>
<path d="M27.875 22.4375L24.1875 26.1875L26.5 32.3125C29.75 40.75 29.375 40.375 32.125 37.5625L34.5625 35.0625L33.4375 27.6875C32.8125 23.625 32.125 19.9375 31.875 19.5625C31.625 19 30.25 20.0625 27.875 22.4375Z" fill="url(#paint2_linear_2292_10)"/>
<defs>
<linearGradient id="paint0_linear_2292_10" x1="20.3241" y1="39.375" x2="20.3241" y2="0.0603676" gradientUnits="userSpaceOnUse">
<stop stop-color="#FFBE8E" stop-opacity="0.677"/>
<stop offset="1" stop-color="#F3924B"/>
</linearGradient>
<linearGradient id="paint1_linear_2292_10" x1="10.9062" y1="16.125" x2="10.9062" y2="5.625" gradientUnits="userSpaceOnUse">
<stop stop-color="#FFBE8E" stop-opacity="0.677"/>
<stop offset="1" stop-color="#F3924B"/>
</linearGradient>
<linearGradient id="paint2_linear_2292_10" x1="29.375" y1="39.3633" x2="29.375" y2="19.4148" gradientUnits="userSpaceOnUse">
<stop stop-color="#FFBE8E" stop-opacity="0.677"/>
<stop offset="1" stop-color="#F3924B"/>
</linearGradient>
</defs>
</svg>
