<svg width="51" height="53" viewBox="0 0 51 53" fill="none" xmlns="http://www.w3.org/2000/svg">
<g clip-path="url(#clip0_595_538)">
<path d="M12.6729 27.5523L16.4744 31.5181L19.4192 28.4478L15.6135 24.4864L18.5541 21.4204L22.3577 25.384L25.2983 22.3181L21.4988 18.3523L24.4394 15.2864L28.2368 19.2543L31.1795 16.1862L27.3758 12.2226L33.2591 6.09072C33.6491 5.68423 34.1779 5.45587 34.7294 5.45587C35.2808 5.45587 35.8097 5.68423 36.1997 6.09072L45.0215 15.2885C45.4113 15.6951 45.6303 16.2466 45.6303 16.8215C45.6303 17.3965 45.4113 17.9479 45.0215 18.3545L18.5541 45.9501C18.1641 46.3566 17.6352 46.5849 17.0838 46.5849C16.5323 46.5849 16.0035 46.3566 15.6135 45.9501L6.79169 36.7523C6.40182 36.3457 6.18281 35.7943 6.18281 35.2193C6.18281 34.6444 6.40182 34.093 6.79169 33.6863L12.6729 27.5523ZM30.3185 39.816L39.1424 30.6182L44.6242 36.3338V45.5338H35.8025L30.3185 39.816ZM12.6729 21.4182L6.78961 15.2864C6.59626 15.085 6.44287 14.8459 6.33821 14.5826C6.23356 14.3194 6.17969 14.0373 6.17969 13.7523C6.17969 13.4674 6.23356 13.1852 6.33821 12.922C6.44287 12.6588 6.59626 12.4196 6.78961 12.2183L12.6729 6.08638C13.0629 5.67989 13.5917 5.45154 14.1432 5.45154C14.6946 5.45154 15.2235 5.67989 15.6135 6.08638L21.4988 12.2183L12.6729 21.4182Z" fill="white"/>
</g>
<defs>
<clipPath id="clip0_595_538">
<rect width="49.911" height="52.0386" fill="white" transform="translate(0.952148)"/>
</clipPath>
</defs>
</svg>
