<svg width="60" height="60" viewBox="0 0 60 60" fill="none" xmlns="http://www.w3.org/2000/svg">
<path d="M5.125 32.4999H18.8175C19.2453 40.4171 21.7689 48.0784 26.13 54.6999C20.6673 53.8419 15.643 51.1978 11.8425 47.1811C8.04209 43.1645 5.67979 38.0017 5.125 32.4999ZM5.125 27.4999C5.67979 21.9982 8.04209 16.8354 11.8425 12.8187C15.643 8.80205 20.6673 6.15798 26.13 5.29993C21.7689 11.9215 19.2453 19.5828 18.8175 27.4999H5.125ZM54.875 27.4999H41.1825C40.7547 19.5828 38.2311 11.9215 33.87 5.29993C39.3327 6.15798 44.357 8.80205 48.1575 12.8187C51.9579 16.8354 54.3202 21.9982 54.875 27.4999ZM54.875 32.4999C54.3202 38.0017 51.9579 43.1645 48.1575 47.1811C44.357 51.1978 39.3327 53.8419 33.87 54.6999C38.2311 48.0784 40.7547 40.4171 41.1825 32.4999H54.8775H54.875ZM23.825 32.4999H36.175C35.7635 39.2486 33.6383 45.781 30 51.4799C26.3617 45.781 24.2365 39.2486 23.825 32.4999ZM23.825 27.4999C24.2365 20.7512 26.3617 14.2188 30 8.51993C33.6383 14.2188 35.7635 20.7512 36.175 27.4999H23.825Z" fill="white"/>
</svg>
