<svg width="24" height="24" viewBox="0 0 24 24" fill="none" xmlns="http://www.w3.org/2000/svg">
<path d="M21.5555 0.625H2.56891C1.53145 0.625 0.625 1.37148 0.625 2.39676V21.4255C0.625 22.4564 1.53145 23.375 2.56891 23.375H21.5499C22.593 23.375 23.375 22.4503 23.375 21.4255V2.39676C23.3811 1.37148 22.593 0.625 21.5555 0.625ZM7.67699 19.5882H4.41785V9.45484H7.67699V19.5882ZM6.16016 7.91414H6.1368C5.09375 7.91414 4.41836 7.1377 4.41836 6.16574C4.41836 5.17602 5.11152 4.41785 6.17793 4.41785C7.24434 4.41785 7.89688 5.17043 7.92023 6.16574C7.91973 7.1377 7.24434 7.91414 6.16016 7.91414ZM19.5882 19.5882H16.3291V14.0475C16.3291 12.7201 15.8548 11.8131 14.6757 11.8131C13.7748 11.8131 13.2416 12.4225 13.0045 13.0161C12.9156 13.2294 12.8917 13.5199 12.8917 13.8164V19.5882H9.63258V9.45484H12.8917V10.865C13.366 10.1896 14.1069 9.2177 15.8309 9.2177C17.9704 9.2177 19.5888 10.6279 19.5888 13.6682L19.5882 19.5882Z" fill="black"/>
</svg>
