<svg width="13" height="14" viewBox="0 0 13 14" fill="none" xmlns="http://www.w3.org/2000/svg">
<path d="M10.9993 9.49984C10.7299 9.49974 10.4633 9.55424 10.2156 9.66005C9.96791 9.76586 9.74421 9.92079 9.55804 10.1155L4.93304 7.51328C5.02263 7.17685 5.02263 6.82283 4.93304 6.4864L9.55804 3.88422C9.89483 4.23339 10.3474 4.44778 10.8309 4.48724C11.3144 4.5267 11.7957 4.38851 12.1847 4.09857C12.5736 3.80863 12.8435 3.38682 12.9438 2.91217C13.044 2.43752 12.9678 1.9426 12.7293 1.52013C12.4909 1.09765 12.1066 0.776606 11.6484 0.61714C11.1903 0.457674 10.6897 0.470728 10.2404 0.653855C9.79121 0.836983 9.42416 1.17762 9.20805 1.61195C8.99195 2.04628 8.94161 2.5445 9.06648 3.01328L4.44148 5.61547C4.16522 5.32741 3.80908 5.12861 3.4189 5.04462C3.02872 4.96064 2.62233 4.99531 2.25201 5.14419C1.8817 5.29307 1.5644 5.54934 1.34093 5.88003C1.11746 6.21073 0.998047 6.60072 0.998047 6.99984C0.998047 7.39896 1.11746 7.78895 1.34093 8.11965C1.5644 8.45034 1.8817 8.70661 2.25201 8.85549C2.62233 9.00437 3.02872 9.03905 3.4189 8.95506C3.80908 8.87107 4.16522 8.67227 4.44148 8.38422L9.06648 10.9864C8.95925 11.3901 8.98111 11.8173 9.12899 12.2079C9.27688 12.5986 9.54337 12.9331 9.89106 13.1646C10.2388 13.3961 10.6502 13.5129 11.0677 13.4987C11.4851 13.4844 11.8877 13.3398 12.2188 13.0852C12.5499 12.8305 12.7929 12.4786 12.9138 12.0788C13.0347 11.6789 13.0274 11.2513 12.8929 10.8558C12.7584 10.4604 12.5035 10.1169 12.1639 9.87375C11.8242 9.63056 11.417 9.49981 10.9993 9.49984Z" fill="white"/>
</svg>
