<svg width="40" height="40" viewBox="0 0 40 40" fill="none" xmlns="http://www.w3.org/2000/svg">
<path d="M19.9997 18.3334C22.2098 18.3334 24.3294 19.2113 25.8922 20.7742C27.455 22.337 28.333 24.4566 28.333 26.6667V36.6667H11.6663V26.6667C11.6663 24.4566 12.5443 22.337 14.1071 20.7742C15.6699 19.2113 17.7895 18.3334 19.9997 18.3334ZM8.81301 23.3434C8.54777 24.238 8.39109 25.1613 8.34634 26.0934L8.33301 26.6667V36.6667H3.33301V29.1667C3.33268 27.7293 3.86306 26.3424 4.8224 25.2721C5.78174 24.2017 7.1025 23.5232 8.53134 23.3667L8.81467 23.3434H8.81301ZM31.1863 23.3434C32.6695 23.4338 34.0623 24.0866 35.0807 25.1688C36.099 26.2509 36.6661 27.6808 36.6663 29.1667V36.6667H31.6663V26.6667C31.6663 25.5117 31.4997 24.3967 31.1863 23.3434ZM9.16634 13.3334C10.2714 13.3334 11.3312 13.7724 12.1126 14.5538C12.894 15.3352 13.333 16.395 13.333 17.5C13.333 18.6051 12.894 19.6649 12.1126 20.4463C11.3312 21.2277 10.2714 21.6667 9.16634 21.6667C8.06127 21.6667 7.00146 21.2277 6.22006 20.4463C5.43866 19.6649 4.99967 18.6051 4.99967 17.5C4.99967 16.395 5.43866 15.3352 6.22006 14.5538C7.00146 13.7724 8.06127 13.3334 9.16634 13.3334ZM30.833 13.3334C31.9381 13.3334 32.9979 13.7724 33.7793 14.5538C34.5607 15.3352 34.9997 16.395 34.9997 17.5C34.9997 18.6051 34.5607 19.6649 33.7793 20.4463C32.9979 21.2277 31.9381 21.6667 30.833 21.6667C29.7279 21.6667 28.6681 21.2277 27.8867 20.4463C27.1053 19.6649 26.6663 18.6051 26.6663 17.5C26.6663 16.395 27.1053 15.3352 27.8867 14.5538C28.6681 13.7724 29.7279 13.3334 30.833 13.3334ZM19.9997 3.33337C21.7678 3.33337 23.4635 4.03575 24.7137 5.286C25.964 6.53624 26.6663 8.23193 26.6663 10C26.6663 11.7682 25.964 13.4638 24.7137 14.7141C23.4635 15.9643 21.7678 16.6667 19.9997 16.6667C18.2316 16.6667 16.5359 15.9643 15.2856 14.7141C14.0354 13.4638 13.333 11.7682 13.333 10C13.333 8.23193 14.0354 6.53624 15.2856 5.286C16.5359 4.03575 18.2316 3.33337 19.9997 3.33337Z" fill="url(#paint0_linear_502:279)"/>
<defs>
<linearGradient id="paint0_linear_502:279" x1="2.99969" y1="3" x2="36.9997" y2="37" gradientUnits="userSpaceOnUse">
<stop stop-color="#667EEA"/>
<stop offset="1" stop-color="#764BA2"/>
</linearGradient>
</defs>
</svg>
