<svg width="61" height="61" viewBox="0 0 61 61" fill="none" xmlns="http://www.w3.org/2000/svg">
<g clip-path="url(#clip0)">
<path d="M44.7654 24.1848L49.7512 15.548C49.8848 15.3161 49.9213 15.0408 49.8527 14.7822C49.7841 14.5235 49.6159 14.3025 49.3849 14.1674C49.2708 14.1004 49.1445 14.0567 49.0134 14.0389C48.8823 14.0211 48.7489 14.0294 48.6211 14.0635C48.4932 14.0976 48.3734 14.1567 48.2685 14.2374C48.1636 14.3181 48.0758 14.4188 48.0102 14.5337L42.9621 23.282C39.108 21.5211 34.7703 20.5408 30.1049 20.5408C25.4396 20.5408 21.1018 21.5223 17.2477 23.282L12.1997 14.5337C12.0652 14.302 11.8442 14.1333 11.5853 14.0646C11.3264 13.9959 11.0508 14.0329 10.8191 14.1674C10.5875 14.3019 10.4187 14.5229 10.3501 14.7818C10.2814 15.0407 10.3183 15.3163 10.4528 15.548L15.4269 24.1848C6.83353 28.8384 1.00951 37.541 0.0480347 47.7286H60.1548C59.1933 37.541 53.3693 28.8384 44.7654 24.1848ZM16.3015 39.2878C15.8032 39.2878 15.3162 39.1401 14.9019 38.8632C14.4876 38.5864 14.1646 38.1929 13.974 37.7326C13.7833 37.2722 13.7334 36.7657 13.8306 36.277C13.9278 35.7883 14.1678 35.3394 14.5201 34.9871C14.8724 34.6347 15.3213 34.3948 15.81 34.2976C16.2987 34.2004 16.8053 34.2503 17.2656 34.4409C17.726 34.6316 18.1194 34.9545 18.3962 35.3688C18.6731 35.7831 18.8208 36.2702 18.8208 36.7685C18.8205 37.4366 18.555 38.0772 18.0826 38.5496C17.6102 39.022 16.9696 39.2875 16.3015 39.2878ZM43.8896 39.2878C43.3918 39.2857 42.9057 39.1362 42.4928 38.8581C42.0799 38.58 41.7586 38.1858 41.5696 37.7253C41.3805 37.2648 41.3321 36.7586 41.4305 36.2706C41.5289 35.7826 41.7697 35.3346 42.1224 34.9834C42.4752 34.6321 42.9241 34.3932 43.4125 34.2968C43.9009 34.2005 44.4069 34.251 44.8667 34.442C45.3264 34.633 45.7192 34.9559 45.9956 35.3699C46.272 35.784 46.4195 36.2707 46.4195 36.7685C46.4193 37.0998 46.3538 37.4278 46.2268 37.7338C46.0998 38.0397 45.9137 38.3177 45.6792 38.5517C45.4446 38.7856 45.1663 38.9711 44.86 39.0974C44.5537 39.2237 44.2256 39.2884 43.8943 39.2878H43.8896Z" fill="white"/>
</g>
<defs>
<clipPath id="clip0">
<rect width="60.1068" height="60.1068" fill="white" transform="translate(0.0480347 0.822754)"/>
</clipPath>
</defs>
</svg>
