<svg width="50" height="53" viewBox="0 0 50 53" fill="none" xmlns="http://www.w3.org/2000/svg">
<g clip-path="url(#clip0)">
<path d="M28.1934 0.223972C27.5391 0.631248 27.4414 0.997797 27.4414 3.15636C27.4414 4.82619 27.4609 5.07056 27.6367 5.43711C27.9297 6.04802 28.2617 6.26184 28.9258 6.26184C29.5703 6.26184 29.9317 6.03784 30.1953 5.48802C30.4492 4.9891 30.459 1.38471 30.2149 0.85525C29.8633 0.0916076 28.8965 -0.21385 28.1934 0.223972Z" fill="white"/>
<path d="M20.4102 5.11132C20.0391 5.30478 19.9219 5.45751 19.6582 6.01751C19.4824 6.39425 16.6309 12.6867 13.3301 20.0176L7.31445 33.3356L11.4941 37.6934L15.6836 42.0513L28.9453 35.545C37.207 31.4926 42.3144 28.9268 42.4902 28.7537C42.8613 28.3872 43.0078 27.817 42.8809 27.3079C42.793 26.9922 41.0449 25.1289 32.3047 16.0161C26.3769 9.83573 21.709 5.05024 21.5527 4.98914C21.1426 4.83641 20.8887 4.86696 20.4102 5.11132Z" fill="white"/>
<path d="M40.8691 5.08084C40.3516 5.33539 37.0508 8.79724 36.9629 9.19433C36.6406 10.5485 37.832 11.6278 39.0137 11.0474C39.1797 10.9558 40.0977 10.07 41.0449 9.08233C42.4707 7.57541 42.7734 7.20886 42.8613 6.84231C43.0664 6.06849 42.6855 5.28448 41.9629 4.99939C41.5723 4.84666 41.3184 4.86702 40.8691 5.08084Z" fill="white"/>
<path d="M42.3047 18.2256C41.3281 18.8467 41.3769 20.2925 42.3925 20.8525C42.8125 21.0765 42.8906 21.0867 44.7461 21.0562C46.8457 21.0256 46.9238 21.0052 47.4023 20.3231C47.6953 19.9158 47.6855 19.1012 47.373 18.643C46.9824 18.083 46.7187 18.022 44.5605 18.022C42.8027 18.022 42.5976 18.0423 42.3047 18.2256Z" fill="white"/>
<path d="M3.83788 36.9807C2.68554 38.2025 2.45116 38.4978 2.39257 38.8236C2.24608 39.6483 2.29491 39.7196 5.97655 43.548C9.16991 46.8571 9.45311 47.132 9.83397 47.1931C10.498 47.3051 10.9375 47.02 12.3242 45.5538L13.5742 44.2404L9.39451 39.8825L5.2246 35.5349L3.83788 36.9807Z" fill="white"/>
<path d="M22.9785 41.8273L17.8711 44.3422L21.5137 48.1401C25.3906 52.1823 25.4492 52.2332 26.2402 52.0906C26.5625 52.0194 26.9824 51.6223 29.668 48.8426C33.0078 45.3706 33.0274 45.34 32.8028 44.4644C32.7149 44.0979 32.3633 43.6906 30.4395 41.6644C29.1992 40.3713 28.1543 39.3022 28.125 39.3124C28.0957 39.3124 25.7813 40.4527 22.9785 41.8273Z" fill="white"/>
</g>
<defs>
<clipPath id="clip0">
<rect width="50" height="52.1313" fill="white"/>
</clipPath>
</defs>
</svg>
