<svg width="70" height="73" viewBox="0 0 70 73" fill="none" xmlns="http://www.w3.org/2000/svg">
<path d="M32.0833 9.12305V24.8092C31.0693 24.3815 28.8875 24.3281 27.8109 24.3281C19.716 24.3281 12.2192 28.3016 12.2192 39.5331C12.2192 52.9741 22.3706 54.7381 29.1667 54.7381C31.8498 54.7381 37.9167 54.459 40.8333 53.5799V9.12305H32.0833ZM46.6667 9.12305V18.2461H55.4167V9.12305H46.6667ZM46.6667 24.3281V50.7884C46.6667 55.3974 43.9779 60.1965 37.9167 62.9524L46.2565 66.8903C54.7331 63.8493 55.4167 53.8294 55.4167 50.7884V24.3281H46.6667ZM29.0812 32.085C30.0155 32.085 31.0636 32.2632 32.0833 32.5067V46.8089C31.0636 47.0525 30.0155 47.2366 29.0812 47.2366C25.2588 47.2366 21.556 45.9774 21.556 39.5331C21.556 33.0888 25.2588 32.085 29.0812 32.085Z" fill="white"/>
</svg>
