<svg width="35" height="36" viewBox="0 0 35 36" fill="none" xmlns="http://www.w3.org/2000/svg">
<path d="M6.99967 12H30.2297L31.063 8.66665H10.333V5.33331H33.1997C33.453 5.33332 33.703 5.39108 33.9307 5.50221C34.1584 5.61333 34.3577 5.7749 34.5136 5.97462C34.6694 6.17435 34.7777 6.40698 34.8302 6.65483C34.8826 6.90268 34.8779 7.15923 34.8163 7.40498L30.6497 24.0716C30.5594 24.4321 30.3513 24.752 30.0583 24.9806C29.7654 25.2091 29.4046 25.3333 29.033 25.3333H5.33301C4.89098 25.3333 4.46706 25.1577 4.1545 24.8452C3.84194 24.5326 3.66634 24.1087 3.66634 23.6666V3.66665H0.333008V0.333313H5.33301C5.77503 0.333313 6.19896 0.508908 6.51152 0.821468C6.82408 1.13403 6.99967 1.55795 6.99967 1.99998V12ZM6.99967 35.3333C6.11562 35.3333 5.26777 34.9821 4.64265 34.357C4.01753 33.7319 3.66634 32.884 3.66634 32C3.66634 31.1159 4.01753 30.2681 4.64265 29.643C5.26777 29.0178 6.11562 28.6666 6.99967 28.6666C7.88373 28.6666 8.73158 29.0178 9.3567 29.643C9.98182 30.2681 10.333 31.1159 10.333 32C10.333 32.884 9.98182 33.7319 9.3567 34.357C8.73158 34.9821 7.88373 35.3333 6.99967 35.3333ZM26.9997 35.3333C26.1156 35.3333 25.2678 34.9821 24.6427 34.357C24.0175 33.7319 23.6663 32.884 23.6663 32C23.6663 31.1159 24.0175 30.2681 24.6427 29.643C25.2678 29.0178 26.1156 28.6666 26.9997 28.6666C27.8837 28.6666 28.7316 29.0178 29.3567 29.643C29.9818 30.2681 30.333 31.1159 30.333 32C30.333 32.884 29.9818 33.7319 29.3567 34.357C28.7316 34.9821 27.8837 35.3333 26.9997 35.3333Z" fill="url(#paint0_linear_502:175)"/>
<defs>
<linearGradient id="paint0_linear_502:175" x1="-2.60033" y1="0.199915" x2="34.5997" y2="35.3999" gradientUnits="userSpaceOnUse">
<stop stop-color="#8FD2FF" stop-opacity="0.78"/>
<stop offset="1" stop-color="#1568A6" stop-opacity="0.8"/>
</linearGradient>
</defs>
</svg>
