<svg width="34" height="34" viewBox="0 0 34 34" fill="none" xmlns="http://www.w3.org/2000/svg">
<path d="M0.333008 17.3334H33.6663V32.3334C33.6663 32.7754 33.4907 33.1993 33.1782 33.5119C32.8656 33.8244 32.4417 34 31.9997 34H1.99967C1.55765 34 1.13372 33.8244 0.821163 33.5119C0.508602 33.1993 0.333008 32.7754 0.333008 32.3334V17.3334ZM25.333 4.00002H31.9997C32.4417 4.00002 32.8656 4.17562 33.1782 4.48818C33.4907 4.80074 33.6663 5.22466 33.6663 5.66669V14H0.333008V5.66669C0.333008 5.22466 0.508602 4.80074 0.821163 4.48818C1.13372 4.17562 1.55765 4.00002 1.99967 4.00002H8.66634V0.666687H11.9997V4.00002H21.9997V0.666687H25.333V4.00002Z" fill="url(#paint0_linear_502:210)"/>
<defs>
<linearGradient id="paint0_linear_502:210" x1="0.199659" y1="-4.19992" x2="33.7997" y2="34.2001" gradientUnits="userSpaceOnUse">
<stop stop-color="#A089FF" stop-opacity="0.33"/>
<stop offset="1" stop-color="#5C38F1"/>
</linearGradient>
</defs>
</svg>
