<svg width="40" height="40" viewBox="0 0 40 40" fill="none" xmlns="http://www.w3.org/2000/svg">
<path d="M35.7891 0.0861206C35.1172 0.218933 34.4922 0.586121 33.8125 1.24237L33.1641 1.86737L35.6484 4.35175L38.1328 6.83612L38.7656 6.17206C39.7578 5.14081 40.125 4.133 39.9375 3.00018C39.6094 1.008 37.7422 -0.296692 35.7891 0.0861206Z" fill="url(#paint0_linear_502:215)"/>
<path d="M21.1325 1.69548C20.6559 1.76579 20.0934 1.96111 19.7262 2.19548C19.2965 2.46892 17.6715 4.02361 17.3356 4.48454C17.0934 4.81267 17.0309 5.32048 17.195 5.64861C17.32 5.89079 34.0544 22.6408 34.3122 22.7814C34.5856 22.922 35.0309 22.922 35.3512 22.7658C35.734 22.5861 37.5778 20.6642 37.859 20.1564C38.4215 19.1408 38.4684 17.9689 37.9762 16.9142C37.8356 16.6095 37.5387 16.2111 37.1325 15.7814L36.4997 15.1174L37.0465 14.547C37.3434 14.2345 37.6872 13.8127 37.8122 13.6174C38.4762 12.5783 38.4684 11.0236 37.8044 9.95329C37.4919 9.45329 30.5465 2.50798 30.0465 2.19548C29.3669 1.77361 28.4762 1.59392 27.6715 1.71892C26.8669 1.85173 26.3044 2.15642 25.5465 2.86736L24.8825 3.50017L24.2184 2.86736C23.4684 2.15642 22.8981 1.85173 22.109 1.72673C21.5934 1.64079 21.5465 1.64079 21.1325 1.69548Z" fill="url(#paint1_linear_502:215)"/>
<path d="M17.5 17.5392L13.4766 21.5627L15.9609 24.0392L18.4375 26.5236L22.4766 22.4846L26.5234 18.4377L24.0625 15.9767C22.7109 14.6252 21.5859 13.5158 21.5625 13.5158C21.5391 13.5158 19.7109 15.3283 17.5 17.5392Z" fill="url(#paint2_linear_502:215)"/>
<path d="M4.63227 17.2345C4.25727 17.422 2.41352 19.3439 2.14009 19.8439C1.57759 20.8595 1.53071 22.0314 2.0229 23.0861C2.16352 23.3908 2.4604 23.7892 2.86665 24.2189L3.49946 24.883L2.95259 25.4533C2.65571 25.7658 2.31196 26.1877 2.18696 26.383C1.5229 27.422 1.53071 28.9767 2.19477 30.047C2.50727 30.547 9.45259 37.4924 9.95259 37.8049C10.6323 38.2267 11.5229 38.4064 12.3276 38.2814C13.1323 38.1486 13.7026 37.8439 14.4526 37.133L15.1166 36.5002L15.7807 37.133C16.5385 37.8439 17.101 38.1486 17.9057 38.2814C18.7104 38.4064 19.6088 38.2267 20.2729 37.8049C20.7026 37.5314 22.3276 35.9767 22.6635 35.5158C22.9057 35.1877 22.9682 34.6799 22.8041 34.3517C22.6791 34.1095 5.94477 17.3595 5.68696 17.2189C5.41352 17.0783 4.94477 17.0783 4.63227 17.2345Z" fill="url(#paint3_linear_502:215)"/>
<path d="M1.20289 33.8439C-0.0314882 35.1642 -0.304926 36.547 0.382574 38.0158C1.00757 39.3517 2.57789 40.1798 4.03101 39.9377C4.84351 39.8048 5.45289 39.4689 6.18726 38.758L6.8357 38.133L4.37476 35.6642C3.0232 34.3127 1.89039 33.2033 1.86695 33.2033C1.8357 33.2033 1.53882 33.4923 1.20289 33.8439Z" fill="url(#paint4_linear_502:215)"/>
<defs>
<linearGradient id="paint0_linear_502:215" x1="36.5744" y1="6.83612" x2="36.5744" y2="0.0194511" gradientUnits="userSpaceOnUse">
<stop stop-color="#FF8D54"/>
<stop offset="1" stop-color="#FFE300"/>
</linearGradient>
<linearGradient id="paint1_linear_502:215" x1="27.7095" y1="22.885" x2="27.7095" y2="1.65771" gradientUnits="userSpaceOnUse">
<stop stop-color="#FF8D54"/>
<stop offset="1" stop-color="#FFE300"/>
</linearGradient>
<linearGradient id="paint2_linear_502:215" x1="20" y1="26.5236" x2="20" y2="13.5158" gradientUnits="userSpaceOnUse">
<stop stop-color="#FF8D54"/>
<stop offset="1" stop-color="#FFE300"/>
</linearGradient>
<linearGradient id="paint3_linear_502:215" x1="12.2896" y1="38.3204" x2="12.2896" y2="17.1153" gradientUnits="userSpaceOnUse">
<stop stop-color="#FF8D54"/>
<stop offset="1" stop-color="#FFE300"/>
</linearGradient>
<linearGradient id="paint4_linear_502:215" x1="3.42469" y1="39.9796" x2="3.42469" y2="33.2033" gradientUnits="userSpaceOnUse">
<stop stop-color="#FF8D54"/>
<stop offset="1" stop-color="#FFE300"/>
</linearGradient>
</defs>
</svg>
