<svg width="40" height="34" viewBox="0 0 40 34" fill="none" xmlns="http://www.w3.org/2000/svg">
<path d="M16.1328 1.85156C15.4922 2.75781 14.9531 3.53125 14.9375 3.57031C14.9219 3.60938 15.2109 4.08594 15.5859 4.625C15.9609 5.16406 16.25 5.61719 16.2344 5.63281C16.2188 5.64844 15.7969 5.78906 15.2969 5.9375C14.7969 6.09375 13.9766 6.39062 13.4688 6.60938L12.5547 7H7.88281H3.20312V8.17188V9.34375H6.14062H9.08594L8.21875 10.2344C7.74219 10.7266 7.29688 11.2188 7.22656 11.3281L7.09375 11.5312H3.54688H0V12.7031V13.875H2.73438H5.46875L5.26562 14.2812C5.14844 14.5078 4.92188 15.0078 4.75781 15.3984L4.46094 16.1016L3.13281 16.125L1.79688 16.1406V17.3125V18.4844H2.77344C3.3125 18.4844 3.75 18.5156 3.75 18.5469C3.75 18.5859 3.70312 18.9609 3.64062 19.3906C3.57812 19.8125 3.51562 20.3281 3.49219 20.5312L3.45312 20.9062H20.1094H36.7656L36.7031 20.2188C36.5703 18.7734 36.1562 17.1016 35.5703 15.6328C33.6719 10.8984 29.4297 7.11719 24.5625 5.82812C24.2188 5.73438 23.8984 5.64844 23.8438 5.63281C23.7812 5.60938 23.9844 5.25 24.4219 4.61719C24.7891 4.07812 25.0781 3.60938 25.0625 3.57031C25.0469 3.53125 24.5156 2.75781 23.8672 1.85156L22.6953 0.210938H20H17.3047L16.1328 1.85156Z" fill="url(#paint0_linear_502:204)"/>
<path d="M1.07031 23.6172C0.875 23.8125 0.601562 24.1797 0.476562 24.4219C0.0546875 25.2109 0 25.5859 0 27.6797V29.5781H1.20312H2.41406L2.46094 29.9453C2.60938 31.2031 2.92188 31.8828 3.66406 32.6328C5.24219 34.2031 7.72656 34.1953 9.29688 32.6094C10 31.8984 10.4688 30.7891 10.4688 29.8359V29.5781H20H29.5312V29.8906C29.5312 30.8047 30.0078 31.9141 30.6953 32.6016C32.2891 34.1953 34.7578 34.2109 36.3359 32.6328C37.0781 31.8828 37.3906 31.2031 37.5391 29.9453L37.5859 29.5781H38.7969H40V27.75C40 26.75 39.9688 25.7344 39.9219 25.5078C39.8125 24.9062 39.3672 24.0547 38.9375 23.6172L38.5703 23.25H20H1.42969L1.07031 23.6172Z" fill="url(#paint1_linear_502:204)"/>
<defs>
<linearGradient id="paint0_linear_502:204" x1="42.8" y1="33" x2="-5.89796e-07" y2="0.200003" gradientUnits="userSpaceOnUse">
<stop stop-color="#8FD2FF" stop-opacity="0.78"/>
<stop offset="1" stop-color="#3936B9"/>
</linearGradient>
<linearGradient id="paint1_linear_502:204" x1="20" y1="33.8067" x2="20" y2="23.25" gradientUnits="userSpaceOnUse">
<stop stop-color="#8FD2FF" stop-opacity="0.78"/>
<stop offset="1" stop-color="#3936B9"/>
</linearGradient>
</defs>
</svg>
