<svg width="51" height="53" viewBox="0 0 51 53" fill="none" xmlns="http://www.w3.org/2000/svg">
<g clip-path="url(#clip0)">
<path d="M12.5703 4.35205H37.6147C38.1683 4.35205 38.6991 4.58131 39.0905 4.98939C39.4819 5.39747 39.7018 5.95095 39.7018 6.52807V45.6963C39.7018 46.2735 39.4819 46.8269 39.0905 47.235C38.6991 47.6431 38.1683 47.8724 37.6147 47.8724H12.5703C12.0167 47.8724 11.4859 47.6431 11.0945 47.235C10.7031 46.8269 10.4832 46.2735 10.4832 45.6963V6.52807C10.4832 5.95095 10.7031 5.39747 11.0945 4.98939C11.4859 4.58131 12.0167 4.35205 12.5703 4.35205ZM25.0925 36.9923C24.539 36.9923 24.0081 37.2215 23.6167 37.6296C23.2253 38.0377 23.0055 38.5912 23.0055 39.1683C23.0055 39.7454 23.2253 40.2989 23.6167 40.707C24.0081 41.1151 24.539 41.3443 25.0925 41.3443C25.646 41.3443 26.1769 41.1151 26.5683 40.707C26.9597 40.2989 27.1795 39.7454 27.1795 39.1683C27.1795 38.5912 26.9597 38.0377 26.5683 37.6296C26.1769 37.2215 25.646 36.9923 25.0925 36.9923Z" fill="white"/>
</g>
<defs>
<clipPath id="clip0">
<rect width="50.089" height="52.2244" fill="white" transform="translate(0.0480347)"/>
</clipPath>
</defs>
</svg>
