<svg width="70" height="70" viewBox="0 0 70 70" fill="none" xmlns="http://www.w3.org/2000/svg">
<path d="M58.7568 17.7831L37.5066 5.03814C36.7433 4.60299 35.8798 4.37415 35.0012 4.37415C34.1226 4.37415 33.2591 4.60299 32.4958 5.03814L11.2443 17.7817C10.4784 18.251 9.84657 18.9099 9.40973 19.6947C8.97289 20.4796 8.74585 21.3638 8.75053 22.262V47.7149C8.74593 48.6136 8.97298 49.4984 9.40978 50.2839C9.84657 51.0693 10.4784 51.729 11.2443 52.1993L16.8169 55.527L16.8484 55.5448C19.6621 56.9844 20.7394 56.9844 21.9876 56.9844C26.3818 56.9844 29.112 54.1407 29.112 49.562V24.8829C29.1146 24.5748 28.9948 24.2782 28.779 24.0583C28.5632 23.8384 28.269 23.7131 27.9609 23.7098H24.9011C24.593 23.7131 24.2988 23.8384 24.083 24.0583C23.8672 24.2782 23.7474 24.5748 23.7499 24.8829V49.562C23.7611 49.9153 23.6807 50.2655 23.5166 50.5786C23.3525 50.8916 23.1103 51.157 22.8134 51.3489C22.0068 51.8411 20.8351 51.7372 19.513 51.0549L14.1728 47.8407C14.1524 47.8267 14.1357 47.808 14.1242 47.786C14.1128 47.7641 14.1069 47.7397 14.1072 47.7149V22.6215C14.108 22.5927 14.1158 22.5645 14.1299 22.5393C14.1439 22.514 14.1638 22.4926 14.1878 22.4766L34.9472 9.76178C34.9627 9.75407 34.9798 9.75006 34.9971 9.75006C35.0144 9.75006 35.0315 9.75407 35.047 9.76178L55.8187 22.4766C55.8423 22.4939 55.8615 22.5165 55.8746 22.5427C55.8876 22.5688 55.8943 22.5978 55.8939 22.627V47.7149C55.8944 47.7408 55.8891 47.7665 55.8785 47.7902C55.8679 47.8138 55.8521 47.8348 55.8324 47.8516L35.0429 60.2452C35.0075 60.2575 34.969 60.2575 34.9335 60.2452L29.6247 57.0924C29.4671 56.9894 29.2851 56.93 29.097 56.9201C28.909 56.9103 28.7217 56.9504 28.5542 57.0364L28.5078 57.0637C27.0421 57.9319 26.6484 58.1575 25.2894 58.6524C25.0679 58.7331 24.547 58.9258 24.5019 59.4413C24.4568 59.9567 24.9517 60.3231 25.3919 60.5788L32.4876 64.936C33.2437 65.3889 34.1083 65.6284 34.9896 65.6292H35.0689C35.9281 65.6157 36.7688 65.3766 37.5066 64.936L58.7568 52.2034C59.5223 51.7317 60.1537 51.0711 60.5903 50.2851C61.027 49.4991 61.2544 48.6141 61.2505 47.7149V22.262C61.2548 21.364 61.0276 20.4801 60.5908 19.6956C60.154 18.9111 59.5223 18.2524 58.7568 17.7831V17.7831Z" fill="white"/>
<path d="M42.0927 43.4833C36.9944 43.4833 35.9075 42.0587 35.5849 39.7591C35.5485 39.4853 35.4151 39.2337 35.2088 39.05C35.0026 38.8663 34.7372 38.7628 34.461 38.7583H31.754C31.4489 38.7648 31.1588 38.8919 30.9472 39.1117C30.7355 39.3316 30.6196 39.6263 30.6247 39.9314C30.6247 41.9248 31.3247 48.4312 42.0981 48.4312C45.4313 48.4312 48.204 47.6519 50.114 46.1767C52.0239 44.7015 53.0466 42.555 53.0466 39.997C53.0466 34.8632 49.697 33.4578 43.1003 32.539C36.3942 31.6066 36.3942 31.1322 36.3942 30.0931C36.3942 29.3453 36.3942 27.5939 41.2423 27.5939C44.6917 27.5939 46.5388 28.03 47.1294 30.3283C47.1817 30.5831 47.3195 30.8124 47.5199 30.9782C47.7202 31.144 47.9713 31.2365 48.2313 31.2402H50.9479C51.1081 31.2386 51.266 31.2029 51.4112 31.1355C51.5564 31.0681 51.6856 30.9705 51.7901 30.8492C51.999 30.6053 52.1032 30.2889 52.08 29.9687C51.7286 25.1083 48.1753 22.6433 41.2464 22.6433C34.9491 22.6433 31.1907 25.4802 31.1907 30.2312C31.1907 35.4402 35.0858 36.9126 40.9374 37.5224C47.7733 38.2293 47.7733 39.2601 47.7733 40.1707C47.7774 41.5898 47.1882 43.4833 42.0927 43.4833Z" fill="white"/>
</svg>
