<svg width="51" height="53" viewBox="0 0 51 53" fill="none" xmlns="http://www.w3.org/2000/svg">
<path d="M12.6727 27.5523L16.4743 31.5181L19.419 28.4478L15.6133 24.4864L18.5539 21.4204L22.3575 25.384L25.2981 22.3181L21.4987 18.3523L24.4392 15.2864L28.2366 19.2543L31.1793 16.1862L27.3757 12.2226L33.2589 6.09072C33.6489 5.68423 34.1778 5.45587 34.7292 5.45587C35.2807 5.45587 35.8095 5.68423 36.1995 6.09072L45.0213 15.2885C45.4112 15.6951 45.6302 16.2466 45.6302 16.8215C45.6302 17.3965 45.4112 17.9479 45.0213 18.3545L18.5539 45.9501C18.1639 46.3566 17.6351 46.5849 17.0836 46.5849C16.5322 46.5849 16.0033 46.3566 15.6133 45.9501L6.79154 36.7523C6.40167 36.3457 6.18265 35.7943 6.18265 35.2193C6.18265 34.6444 6.40167 34.093 6.79154 33.6863L12.6727 27.5523ZM30.3183 39.816L39.1422 30.6182L44.6241 36.3338V45.5338H35.8023L30.3183 39.816ZM12.6727 21.4182L6.78946 15.2864C6.59611 15.085 6.44271 14.8459 6.33806 14.5826C6.2334 14.3194 6.17953 14.0373 6.17953 13.7523C6.17953 13.4674 6.2334 13.1852 6.33806 12.922C6.44271 12.6588 6.59611 12.4196 6.78946 12.2183L12.6727 6.08638C13.0627 5.67989 13.5916 5.45154 14.143 5.45154C14.6945 5.45154 15.2233 5.67989 15.6133 6.08638L21.4987 12.2183L12.6727 21.4182Z" fill="white"/>
</svg>
