<svg width="40" height="40" viewBox="0 0 40 40" fill="none" xmlns="http://www.w3.org/2000/svg">
<path d="M4.99967 5H34.9997C35.4417 5 35.8656 5.17559 36.1782 5.48816C36.4907 5.80072 36.6663 6.22464 36.6663 6.66667V33.3333C36.6663 33.7754 36.4907 34.1993 36.1782 34.5118C35.8656 34.8244 35.4417 35 34.9997 35H4.99967C4.55765 35 4.13372 34.8244 3.82116 34.5118C3.5086 34.1993 3.33301 33.7754 3.33301 33.3333V6.66667C3.33301 6.22464 3.5086 5.80072 3.82116 5.48816C4.13372 5.17559 4.55765 5 4.99967 5V5ZM33.333 16.6667H6.66634V31.6667H33.333V16.6667ZM24.9997 10V13.3333H31.6663V10H24.9997Z" fill="url(#paint0_linear_498:110)"/>
<defs>
<linearGradient id="paint0_linear_498:110" x1="0.499663" y1="0.500001" x2="40.4997" y2="37.5" gradientUnits="userSpaceOnUse">
<stop stop-color="#FFAA00"/>
<stop offset="1" stop-color="#FFE300"/>
</linearGradient>
</defs>
</svg>
