<svg width="51" height="53" viewBox="0 0 51 53" fill="none" xmlns="http://www.w3.org/2000/svg">
<g clip-path="url(#clip0)">
<path d="M7.25 6.58972H44.75C45.3025 6.58972 45.8324 6.81857 46.2231 7.22593C46.6138 7.63329 46.8333 8.18578 46.8333 8.76187V43.5163C46.8333 44.0923 46.6138 44.6448 46.2231 45.0522C45.8324 45.4596 45.3025 45.6884 44.75 45.6884H7.25C6.69747 45.6884 6.16757 45.4596 5.77687 45.0522C5.38616 44.6448 5.16667 44.0923 5.16667 43.5163V8.76187C5.16667 8.18578 5.38616 7.63329 5.77687 7.22593C6.16757 6.81857 6.69747 6.58972 7.25 6.58972ZM42.6667 21.7948H9.33334V41.3441H42.6667V21.7948ZM32.25 13.1062V17.4505H40.5833V13.1062H32.25Z" fill="white"/>
</g>
<defs>
<clipPath id="clip0">
<rect width="49.911" height="52.0388" fill="white" transform="translate(0.951965)"/>
</clipPath>
</defs>
</svg>
