<svg width="102" height="76" viewBox="0 0 102 76" fill="none" xmlns="http://www.w3.org/2000/svg">
<path d="M36.9825 31.86L36.0236 31.5763L35.7827 32.3904L36.5469 32.7602L36.9825 31.86ZM45.6225 39.78L44.7598 40.2857L44.7637 40.2924L44.7677 40.299L45.6225 39.78ZM7.8225 68.58L8.5097 67.8535L7.8225 68.58ZM2.4225 42.48L3.38811 42.74H3.38812L2.4225 42.48ZM8.1825 28.26L9.08693 28.6866L9.08759 28.6852L8.1825 28.26ZM20.7825 1.43999V0.439991H20.1474L19.8774 1.01478L20.7825 1.43999ZM45.9825 1.43999L46.9414 1.72369L47.3212 0.439991H45.9825V1.43999ZM89.1825 31.86L88.2236 31.5763L87.9827 32.3904L88.7469 32.7602L89.1825 31.86ZM97.8225 39.78L96.9598 40.2857L96.9637 40.2924L96.9677 40.299L97.8225 39.78ZM54.6225 42.48L55.5881 42.74L54.6225 42.48ZM60.3825 28.26L61.2869 28.6866L61.2876 28.6852L60.3825 28.26ZM72.9825 1.43999V0.439991H72.3474L72.0774 1.01478L72.9825 1.43999ZM98.1825 1.43999L99.1414 1.72369L99.5212 0.439991H98.1825V1.43999ZM36.5469 32.7602C40.0933 34.4761 42.8225 36.981 44.7598 40.2857L46.4852 39.2743C44.3425 35.619 41.3117 32.8439 37.4181 30.9598L36.5469 32.7602ZM44.7677 40.299C46.696 43.475 47.6825 47.3079 47.6825 51.84H49.6825C49.6825 47.0121 48.629 42.805 46.4773 39.261L44.7677 40.299ZM47.6825 51.84C47.6825 58.567 45.5471 63.8694 41.3353 67.8535L42.7097 69.3065C47.3779 64.8906 49.6825 59.033 49.6825 51.84H47.6825ZM41.3353 67.8535C37.107 71.8532 31.6651 73.88 24.9225 73.88V75.88C32.0999 75.88 38.058 73.7068 42.7097 69.3065L41.3353 67.8535ZM24.9225 73.88C18.1799 73.88 12.738 71.8532 8.5097 67.8535L7.1353 69.3065C11.787 73.7068 17.7452 75.88 24.9225 75.88V73.88ZM8.5097 67.8535C4.29787 63.8694 2.1625 58.567 2.1625 51.84H0.1625C0.1625 59.033 2.46713 64.8906 7.1353 69.3065L8.5097 67.8535ZM2.1625 51.84C2.1625 48.8109 2.57012 45.7782 3.38811 42.74L1.45688 42.22C0.594877 45.4218 0.1625 48.6291 0.1625 51.84H2.1625ZM3.38812 42.74C4.20335 39.712 6.0899 35.0403 9.08693 28.6866L7.27807 27.8334C4.2751 34.1997 2.32165 39.008 1.45688 42.22L3.38812 42.74ZM9.08759 28.6852L21.6876 1.8652L19.8774 1.01478L7.27741 27.8348L9.08759 28.6852ZM20.7825 2.43999H45.9825V0.439991H20.7825V2.43999ZM45.0236 1.15629L36.0236 31.5763L37.9414 32.1437L46.9414 1.72369L45.0236 1.15629ZM88.7469 32.7602C92.2933 34.4761 95.0226 36.981 96.9598 40.2857L98.6852 39.2743C96.5425 35.619 93.5117 32.8439 89.6181 30.9598L88.7469 32.7602ZM96.9677 40.299C98.896 43.475 99.8825 47.3079 99.8825 51.84H101.882C101.882 47.0121 100.829 42.805 98.6773 39.261L96.9677 40.299ZM99.8825 51.84C99.8825 58.567 97.7471 63.8694 93.5353 67.8535L94.9097 69.3065C99.5779 64.8906 101.882 59.033 101.882 51.84H99.8825ZM93.5353 67.8535C89.307 71.8532 83.8652 73.88 77.1225 73.88V75.88C84.2999 75.88 90.258 73.7068 94.9097 69.3065L93.5353 67.8535ZM77.1225 73.88C70.3799 73.88 64.938 71.8532 60.7097 67.8535L59.3353 69.3065C63.987 73.7068 69.9452 75.88 77.1225 75.88V73.88ZM60.7097 67.8535C56.4979 63.8694 54.3625 58.567 54.3625 51.84H52.3625C52.3625 59.033 54.6671 64.8906 59.3353 69.3065L60.7097 67.8535ZM54.3625 51.84C54.3625 48.8109 54.7701 45.7782 55.5881 42.74L53.6569 42.22C52.7949 45.4218 52.3625 48.6291 52.3625 51.84H54.3625ZM55.5881 42.74C56.4034 39.712 58.2899 35.0403 61.2869 28.6866L59.4781 27.8334C56.4751 34.1997 54.5217 39.008 53.6569 42.22L55.5881 42.74ZM61.2876 28.6852L73.8876 1.8652L72.0774 1.01478L59.4774 27.8348L61.2876 28.6852ZM72.9825 2.43999H98.1825V0.439991H72.9825V2.43999ZM97.2236 1.15629L88.2236 31.5763L90.1414 32.1437L99.1414 1.72369L97.2236 1.15629Z" fill="white"/>
</svg>
