<svg width="24" height="24" viewBox="0 0 24 24" fill="none" xmlns="http://www.w3.org/2000/svg">
<path d="M2.83383 18.2424C2.83383 18.2457 2.83383 18.2518 2.83008 18.2602C2.83148 18.2546 2.83242 18.2485 2.83383 18.2424Z" fill="black"/>
<path d="M20.6199 19.0125C20.4656 19.0092 20.3132 18.9774 20.1704 18.9188L17.5089 17.9752L17.4892 17.9672C17.4311 17.943 17.3688 17.9309 17.3059 17.9316C17.2479 17.9316 17.1904 17.9421 17.1362 17.9625C17.0715 17.9869 16.4889 18.2058 15.8776 18.3736C15.5462 18.4645 14.3926 18.7613 13.4668 18.7613C11.1006 18.7613 8.88807 17.8519 7.2376 16.2005C6.43131 15.3991 5.79197 14.4458 5.3566 13.3957C4.92122 12.3456 4.69846 11.2196 4.7012 10.0828C4.70118 9.4905 4.76498 8.8999 4.89151 8.32125C5.30354 6.41719 6.39479 4.68516 7.96417 3.44625C9.57402 2.18346 11.5614 1.49805 13.6074 1.5C16.0548 1.5 18.3353 2.4375 20.0293 4.13344C21.6306 5.73985 22.5081 7.85204 22.501 10.0805C22.4997 11.7364 22.0052 13.3543 21.0807 14.7281L21.0718 14.7413L21.0371 14.7881C21.0292 14.7989 21.0212 14.8092 21.0137 14.82L21.0067 14.8327C20.988 14.8644 20.9711 14.8971 20.956 14.9306L21.6939 17.5528C21.7265 17.661 21.7441 17.7731 21.7464 17.8861C21.7465 18.0341 21.7175 18.1806 21.661 18.3174C21.6044 18.4541 21.5215 18.5784 21.4168 18.683C21.3122 18.7876 21.188 18.8706 21.0512 18.9271C20.9145 18.9837 20.7679 19.0127 20.6199 19.0125Z" fill="black"/>
<path d="M14.0564 19.9403C14.008 19.8461 13.9398 19.7634 13.8566 19.6979C13.7734 19.6324 13.677 19.5855 13.5741 19.5606C13.3031 19.4889 12.9872 19.501 12.7458 19.4832C10.4664 19.3247 8.32148 18.3465 6.70737 16.7293C5.2724 15.3024 4.33982 13.4479 4.05002 11.4451C3.9844 10.9885 3.9844 10.8751 3.9844 10.8751C3.98437 10.7228 3.93796 10.5741 3.85134 10.4488C3.76472 10.3235 3.64199 10.2275 3.4995 10.1737C3.357 10.1198 3.20149 10.1106 3.05365 10.1474C2.90581 10.1841 2.77265 10.2649 2.6719 10.3792C2.6719 10.3792 2.30252 10.7814 2.12815 11.1849C1.63909 12.3118 1.43053 13.5404 1.52033 14.7654C1.61014 15.9905 1.99563 17.1756 2.64377 18.219C2.76565 18.422 2.76565 18.5157 2.73846 18.7267C2.61049 19.3881 2.38643 20.5548 2.26971 21.1599C2.23107 21.3562 2.24544 21.5592 2.31135 21.748C2.37727 21.9369 2.49234 22.1047 2.64471 22.2343L2.66627 22.2526C2.86784 22.4127 3.11762 22.4999 3.37502 22.5001C3.51981 22.5002 3.66318 22.4717 3.7969 22.4162L6.30518 21.4482C6.39154 21.4154 6.48694 21.4154 6.5733 21.4482C7.56096 21.8157 8.58893 22.0107 9.56299 22.0107C10.7767 22.0119 11.9756 21.7452 13.0744 21.2298C13.3303 21.1098 13.7306 20.9795 13.965 20.7085C14.0537 20.6035 14.1097 20.4747 14.1259 20.3381C14.1421 20.2015 14.118 20.0632 14.0564 19.9403Z" fill="black"/>
</svg>
