<svg width="18" height="18" viewBox="0 0 18 18" fill="none" xmlns="http://www.w3.org/2000/svg">
<path d="M9.00195 0.25C4.16992 0.25 0.251953 4.16797 0.251953 9C0.251953 12.582 2.4082 15.6602 5.49023 17.0156C5.4668 16.4062 5.48633 15.6719 5.64258 15.0078C5.81055 14.2969 6.76758 10.2383 6.76758 10.2383C6.76758 10.2383 6.48633 9.67969 6.48633 8.85547C6.48633 7.55859 7.23633 6.58984 8.17383 6.58984C8.9707 6.58984 9.35351 7.1875 9.35351 7.90234C9.35351 8.70312 8.8418 9.89844 8.58008 11.0078C8.36133 11.9375 9.04492 12.6914 9.96289 12.6914C11.6191 12.6914 12.7363 10.5625 12.7363 8.03906C12.7363 6.12109 11.4434 4.6875 9.0957 4.6875C6.44336 4.6875 4.78711 6.66797 4.78711 8.87891C4.78711 9.64062 5.01367 10.1797 5.36523 10.5938C5.52539 10.7852 5.54883 10.8633 5.49023 11.082C5.44726 11.2422 5.35352 11.6289 5.31055 11.7852C5.25195 12.0078 5.07227 12.0859 4.87305 12.0039C3.65039 11.5039 3.08008 10.168 3.08008 8.66016C3.08008 6.17578 5.17773 3.19531 9.33398 3.19531C12.6738 3.19531 14.873 5.61328 14.873 8.20703C14.873 11.6406 12.9629 14.2031 10.1504 14.2031C9.20508 14.2031 8.31836 13.6914 8.01367 13.1133C8.01367 13.1133 7.50586 15.1289 7.39648 15.5195C7.21289 16.1953 6.84961 16.8672 6.51758 17.3945C7.323 17.6321 8.15831 17.7532 8.99805 17.7539C13.8301 17.7539 17.748 13.8359 17.748 9.00391C17.748 4.17188 13.834 0.25 9.00195 0.25Z" fill="black"/>
</svg>
