<svg width="18" height="18" viewBox="0 0 18 18" fill="none" xmlns="http://www.w3.org/2000/svg">
<path d="M0.09375 0.09375V17.9062H17.9062V0.09375H0.09375ZM14.8918 4.31406L13.9363 5.23008C13.8539 5.29297 13.8133 5.39609 13.8301 5.49805V12.2277C13.8129 12.3297 13.8539 12.4332 13.9363 12.4957L14.8691 13.4117V13.6129H10.177V13.4117L11.1434 12.4734C11.2383 12.3785 11.2383 12.3504 11.2383 12.2055V6.76602L8.55117 13.5906H8.18789L5.05937 6.76602V11.3402C5.0332 11.5324 5.09727 11.7262 5.23242 11.8652L6.48945 13.3898V13.591H2.92539V13.3898L4.18242 11.8652C4.3168 11.7258 4.37695 11.5309 4.34453 11.3402V6.05078C4.35938 5.90391 4.30352 5.75859 4.19375 5.65977L3.07656 4.31367V4.1125H6.5457L9.22734 9.99336L11.5848 4.1125H14.8918V4.31406Z" fill="black"/>
</svg>
